<?xml version="1.0" encoding="utf-8"?>
<!-- Generator: Adobe Illustrator 18.1.1, SVG Export Plug-In . SVG Version: 6.00 Build 0)  -->
<!DOCTYPE svg PUBLIC "-//W3C//DTD SVG 1.1//EN" "http://www.w3.org/Graphics/SVG/1.1/DTD/svg11.dtd">
<svg version="1.1" id="Layer_1" xmlns="http://www.w3.org/2000/svg" xmlns:xlink="http://www.w3.org/1999/xlink" x="0px" y="0px"
	 viewBox="0 0 277.9 474.4" enable-background="new 0 0 277.9 474.4" xml:space="preserve">
<pattern  x="-745.1" y="-420" width="19.3" height="19.3" patternUnits="userSpaceOnUse" id="New_Pattern_Swatch_1" viewBox="0 -19.3 19.3 19.3" overflow="visible">
	<g>
		<polygon fill="none" points="0,0 19.3,0 19.3,-19.3 0,-19.3 		"/>
		<polygon fill="#F1E46B" points="19.3,0 0,0 0,-19.3 19.3,-19.3 		"/>
	</g>
</pattern>
<g>
	<path fill="#282266" d="M139,0C138.2,0.4,3.8,65.7,0,237.2C3.8,408.7,138.2,474,139,474.4c0.8-0.4,135.1-65.7,139-237.2
		C274.1,65.7,139.8,0.4,139,0z"/>
	<path fill="#ECA920" d="M139,8.1c12.4,6.5,39,24.2,63.7,51.6c19.2,21.3,34.6,45.3,45.8,71.2c14,32.4,21.6,68.2,22.5,106.2
		c-0.9,38-8.4,73.7-22.5,106.2c-11.2,26-26.7,50-45.8,71.2c-24.7,27.5-51.3,45.1-63.7,51.6c-12.4-6.5-39-24.2-63.7-51.6
		c-19.2-21.3-34.6-45.3-45.8-71.2c-14-32.4-21.6-68.2-22.5-106.2c0.9-38,8.4-73.7,22.5-106.2c11.2-26,26.7-50,45.8-71.2
		C99.9,32.3,126.5,14.7,139,8.1 M139,2.8c-0.8,0.4-133,65-136.8,234.4c3.8,169.4,136,234,136.8,234.4c0.8-0.4,133-65,136.8-234.4
		C272,67.8,139.8,3.2,139,2.8L139,2.8z"/>
	<path fill="#ECA920" d="M137.5,60.4 M137.5,54.8c-0.5,0.3-88.3,50.5-90.8,182.4C49.2,369,137,419.3,137.5,419.6
		c0.5-0.3,88.3-50.5,90.8-182.4C225.8,105.4,138,55.1,137.5,54.8L137.5,54.8z"/>
	<pattern  id="SVGID_1_" xlink:href="#New_Pattern_Swatch_1" patternTransform="matrix(0.6198 0 0 0.6365 -2551.0757 -2377.3589)">
	</pattern>
	<path fill="url(#SVGID_1_)" d="M137.5,411.9c-4.1-2.5-22.3-14.8-41-39.8c-19.1-25.6-42.1-69.8-43.3-135.6
		c0.3-16.1,1.9-31.8,4.8-46.6l159-0.2c2.9,14.9,4.5,30.7,4.8,46.9c-1.2,65.7-24.2,110-43.3,135.6
		C159.8,397.1,141.6,409.3,137.5,411.9z"/>
	<path fill="#010101" d="M223.4,235.3C221.1,109.2,138,61.1,137.5,60.8C137,61.1,54,109.2,51.6,235.3c0,0.2,0,0.4,0,0.6
		c0,0.2,0,0.4,0,0.6c2.4,128.1,85.4,177,85.9,177.3c0.5-0.3,83.5-49.1,85.9-177.3c0-0.2,0-0.4,0-0.6
		C223.4,235.7,223.4,235.5,223.4,235.3z M96.5,101.9c16-21.1,33.3-34.5,41-39.2c7.7,4.6,25,18.1,41,39.2
		c14,18.5,30.1,46.8,38.2,86.2l-158.4,0.2C66.4,148.8,82.5,120.3,96.5,101.9z M137.5,410c-0.8-0.5-1.9-1.2-3.1-2.2
		c1.9,1.3,3.1,2,3.1,2c0.1,0,1.2-0.7,3.1-2C139.4,408.7,138.3,409.5,137.5,410z M178.5,368.8c-16,21.1-33.3,34.5-41,39.2
		c-7.7-4.6-25-18.1-41-39.2c-3.2-4.3-6.6-9.1-9.9-14.4c-0.4-0.7-0.8-1.5-1.3-2.2l51.5-56.7l52.4,57.6c-0.2,0.4-0.5,0.8-0.7,1.2
		C185.1,359.7,181.7,364.5,178.5,368.8z M204.4,321.2L136.8,247l-66.7,73.2c-8.5-22.6-14.8-50.3-15.4-83.7
		c0.3-15.5,1.8-30.7,4.5-45.1l156.4-0.2c2.7,14.4,4.3,29.6,4.6,45.2C219.6,270.4,213.1,298.5,204.4,321.2z"/>
	<g>
		<path fill="#ECA920" d="M187.5,316.3c-0.2-0.2-0.3-0.5-0.4-0.8c-0.2-0.7-0.2-1.5-0.2-2.2c0-0.5,0.1-1.1,0.1-1.6
			c-0.1-1-0.7-1.9-1.2-2.8c-0.6-1-0.8-2-1.3-3c-0.8-1.6-2.1-2.9-3.3-4.2c-1.3-1.4-2.5-2.9-3.9-4.4c-1.5-1.6-2.9-3.2-4.6-4.6
			c-1.7-1.3-3.2-2.8-4.8-4.2c-0.5-0.5-1.1-1.1-1.7-1.4c-0.1,0-0.2-0.1-0.3-0.1c-0.3,0-0.4,0.3-0.4,0.6c-0.1,0.6-0.1,1.2-0.1,1.8
			c0,0.4,0,0.9,0.1,1.3c0.2,0.5,0.5,0.9,0.8,1.2c0.9,1.1,2.1,2.2,2.8,3.4c0.5,0.8,1.2,1.5,2.1,2c0.6,0.4,1.3,0.7,1.9,1
			c0,0-1.7-0.5-2.3-0.8c-0.7-0.3-2.2-1.5-2.6-1.9s-1-1.1-1.3-1.6c-0.6-0.9-1.6-1.3-2.4-1.9c-1-0.8-2.1-1.8-3.1-2.7
			c-1.7-1.4-3.3-2.6-5-4c-1.6-1.3-3-2.6-5.1-3c-0.2,0-0.7,0.2-0.9,0.3c-0.1,0.1-0.1,0.2-0.2,0.3c-0.5,1.3,0.5,2.1,1.3,2.9
			c1,1,2.1,2,3.2,3c1.1,0.9,6,5.2,6.6,5.7c0.6,0.5,2.8,2.3,2.8,2.7c0,0.5-0.9,0.4-1.1,0.1c-0.3-0.4-13.3-11.4-13.8-11.9
			c-1-0.8-2.4-1.7-3.7-1.7c-0.3,0-0.5,0.1-0.7,0.3c-0.1,0.2-0.1,0.4-0.1,0.6c0.1,0.9,0.5,1.7,1.1,2.4c0.6,0.7,1.4,1.3,2,1.9
			c0.7,0.6,1.3,1.2,2,1.9c2.9,2.7,5.7,5.5,8.4,8.4c0.7,0.8,1.6,1.5,2.2,2.4c0.1,0.1,0.2,0.3,0.2,0.4c0,0.1,0,0.1,0,0.2
			c0,0.2-0.2,0.2-0.4,0.2c-0.6,0.1-1.2-0.8-1.7-1.3c-0.4-0.4-0.8-0.8-1.1-1.1c-0.7-0.7-1.4-1.4-2.1-2.2c-1.4-1.4-2.8-2.8-4.3-4.2
			c-0.7-0.7-1.4-1.3-2-2c-0.6-0.6-1.3-1.3-2.1-1.6c-0.4-0.2-0.8-0.2-1.3-0.2c-0.2,0-0.3,0-0.5,0.1c-0.1,0.1-0.2,0.2-0.2,0.4
			c-0.7,2.7,2.3,5.3,3.9,7c1.6,1.7,3.2,3.4,4.9,5c1.4,1.4,2.7,2.8,4.1,4.1c0.3,0.2,0.5,0.5,0.8,0.7c0.2,0.2,0.5,0.6,0.3,0.8
			c-0.2,0.1-0.4,0-0.6-0.1c-2.9-2.3-5.1-5.2-7.9-7.5c-0.2-0.2-0.5-0.4-0.7-0.5c-0.1-0.1-0.2-0.1-0.4-0.2c-0.2,0-0.5,0.2-0.6,0.4
			s-0.1,0.5,0,0.7c0.3,0.8,0.9,1.3,1.4,2c1.4,1.9,2.8,3.7,4.5,5.4c1.2,1.2,2.4,2.4,3.5,3.6c1.1,1.3,2.1,2.7,3.3,3.9
			c2.4,2.5,5.2,4.7,8.3,6.4c1.8,1,3.7,1.9,5.7,2.4c1.2,0.3,2.4,0.3,3.6,0.3c0.8,0,2.4,0.2,3.1-0.3c0.1-0.1,0.2-0.2,0.3-0.3
			c1.4-1.6,2.9-3.3,4.3-4.9c0.5-0.5,1-1.1,1.5-1.6C188.5,316.9,187.9,316.7,187.5,316.3C187.6,316.4,187.6,316.4,187.5,316.3z
			 M173.7,313.7c-0.1,0-0.1,0-0.2-0.1c-0.1-0.1-0.2-0.3-0.2-0.5c-0.1-0.6-0.1-1.1,0.1-1.6c0-0.1,0.1-0.2,0.1-0.2c0.1,0,0.1,0,0.2,0
			c0.2,0,0.5,0.1,0.7,0.3c0.1,0.1,0.2,0.2,0.2,0.4c0.1,0.5-0.1,1-0.1,1.5c0,0.1-0.1,0.3-0.2,0.3c-0.1,0.1-0.2,0.1-0.3,0
			C173.9,313.7,173.8,313.7,173.7,313.7z M180,319c-0.1,0.1-0.4,0.2-0.6,0.2c-0.6,0-1-0.5-1.5-0.8c-0.7-0.6-1.4-1-2.1-1.6
			c-0.6-0.5-1.4-1.2-1.5-2.1c0-0.2,0.1-0.5,0.3-0.5c0.3-0.1,0.6,0.2,0.8,0.5c1,1.4,2.3,2.5,3.8,3.2c0.2,0.1,0.4,0.2,0.6,0.4
			C180.1,318.4,180.2,318.6,180,319C180.1,318.9,180.1,318.9,180,319z"/>
		<path fill="#ECA920" d="M86.1,316.3c0.2-0.2,0.3-0.5,0.4-0.8c0.2-0.7,0.2-1.5,0.2-2.2c0-0.5-0.1-1.1-0.1-1.6
			c0.1-1,0.7-1.9,1.2-2.8c0.6-1,0.8-2,1.3-3c0.8-1.6,2.1-2.9,3.3-4.2c1.3-1.4,2.5-2.9,3.9-4.4c1.5-1.6,2.9-3.2,4.6-4.6
			c1.7-1.3,3.2-2.8,4.8-4.2c0.5-0.5,1.1-1.1,1.7-1.4c0.1,0,0.2-0.1,0.3-0.1c0.3,0,0.4,0.3,0.4,0.6c0.1,0.6,0.1,1.2,0.1,1.8
			c0,0.4,0,0.9-0.1,1.3c-0.2,0.5-0.5,0.9-0.8,1.2c-0.9,1.1-2.1,2.2-2.8,3.4c-0.5,0.8-1.2,1.5-2.1,2c-0.6,0.4-1.3,0.7-1.9,1
			c0,0,1.7-0.5,2.3-0.8c0.7-0.3,2.2-1.5,2.6-1.9c0.4-0.4,1-1.1,1.3-1.6c0.6-0.9,1.6-1.3,2.4-1.9c1-0.8,2.1-1.8,3.1-2.7
			c1.7-1.4,3.3-2.6,5-4c1.6-1.3,3-2.6,5.1-3c0.2,0,0.7,0.2,0.9,0.3c0.1,0.1,0.1,0.2,0.2,0.3c0.5,1.3-0.5,2.1-1.3,2.9
			c-1,1-2.1,2-3.2,3c-1.1,0.9-6,5.2-6.6,5.7c-0.6,0.5-2.8,2.3-2.8,2.7c0,0.5,0.9,0.4,1.1,0.1c0.3-0.4,13.3-11.4,13.8-11.9
			c1-0.8,2.4-1.7,3.7-1.7c0.3,0,0.5,0.1,0.7,0.3c0.1,0.2,0.1,0.4,0.1,0.6c-0.1,0.9-0.5,1.7-1.1,2.4c-0.6,0.7-1.4,1.3-2,1.9
			c-0.7,0.6-1.3,1.2-2,1.9c-2.9,2.7-5.7,5.5-8.4,8.4c-0.7,0.8-1.6,1.5-2.2,2.4c-0.1,0.1-0.2,0.3-0.2,0.4c0,0.1,0,0.1,0,0.2
			c0,0.2,0.2,0.2,0.4,0.2c0.6,0.1,1.2-0.8,1.7-1.3c0.4-0.4,0.8-0.8,1.1-1.1c0.7-0.7,1.4-1.4,2.1-2.2c1.4-1.4,2.8-2.8,4.3-4.2
			c0.7-0.7,1.4-1.3,2-2c0.6-0.6,1.3-1.3,2.1-1.6c0.4-0.2,0.8-0.2,1.3-0.2c0.2,0,0.3,0,0.5,0.1c0.1,0.1,0.2,0.2,0.2,0.4
			c0.7,2.7-2.3,5.3-3.9,7c-1.6,1.7-3.2,3.4-4.9,5c-1.4,1.4-2.7,2.8-4.1,4.1c-0.3,0.2-0.5,0.5-0.8,0.7c-0.2,0.2-0.5,0.6-0.3,0.8
			c0.2,0.1,0.4,0,0.6-0.1c2.9-2.3,5.1-5.2,7.9-7.5c0.2-0.2,0.5-0.4,0.7-0.5c0.1-0.1,0.2-0.1,0.4-0.2c0.2,0,0.5,0.2,0.6,0.4
			s0.1,0.5,0,0.7c-0.3,0.8-0.9,1.3-1.4,2c-1.4,1.9-2.8,3.7-4.5,5.4c-1.2,1.2-2.4,2.4-3.5,3.6c-1.1,1.3-2.1,2.7-3.3,3.9
			c-2.4,2.5-5.2,4.7-8.3,6.4c-1.8,1-3.7,1.9-5.7,2.4c-1.2,0.3-2.4,0.3-3.6,0.3c-0.8,0-2.4,0.2-3.1-0.3c-0.1-0.1-0.2-0.2-0.3-0.3
			c-1.4-1.6-2.9-3.3-4.3-4.9c-0.5-0.5-1-1.1-1.5-1.6C85.1,316.8,85.7,316.7,86.1,316.3C86.1,316.4,86.1,316.3,86.1,316.3z
			 M99.9,313.6c0.1,0,0.1,0,0.2-0.1c0.1-0.1,0.2-0.3,0.2-0.5c0.1-0.6,0.1-1.1-0.1-1.6c0-0.1-0.1-0.2-0.1-0.2c-0.1,0-0.1,0-0.2,0
			c-0.2,0-0.5,0.1-0.7,0.3c-0.1,0.1-0.2,0.2-0.2,0.4c-0.1,0.5,0.1,1,0.1,1.5c0,0.1,0.1,0.3,0.2,0.3c0.1,0.1,0.2,0.1,0.3,0
			C99.7,313.7,99.8,313.7,99.9,313.6z M93.6,318.9c0.1,0.1,0.4,0.2,0.6,0.2c0.6,0,1-0.5,1.5-0.8c0.7-0.6,1.4-1,2.1-1.6
			c0.6-0.5,1.4-1.2,1.5-2.1c0-0.2-0.1-0.5-0.3-0.5c-0.3-0.1-0.6,0.2-0.8,0.5c-1,1.4-2.3,2.5-3.8,3.2c-0.2,0.1-0.4,0.2-0.6,0.4
			S93.4,318.6,93.6,318.9C93.6,318.9,93.6,318.9,93.6,318.9z"/>
	</g>
	<g>
		<path fill="#ECA920" d="M62.4,386.4c-0.4-1.4-0.7-2.1-0.8-2.3c-0.2-0.3-0.6-0.5-0.9-0.5c-0.4,0-0.7,0-1,0.2l-0.5-0.7l5.6-4.1
			l0.5,0.7c-0.8,1.5-1.3,2.9-1.5,4c-0.4,2.2-0.1,4,1.1,5.6c1.3,1.7,2.9,2.5,4.8,2.2c1.9-0.3,4.1-1.3,6.4-3c1.7-1.3,3-2.5,3.8-3.8
			c1.5-2.3,1.4-4.6-0.2-6.8c-1-1.3-2.2-2.3-3.8-3c-0.9-0.4-2.1-0.7-3.6-0.9l0-1.2c1.8,0.3,3.2,0.6,4.2,1c1.8,0.8,3.4,2,4.6,3.7
			c1.9,2.6,2.7,5.2,2.6,8c-0.2,3.1-1.6,5.6-4.2,7.5c-2.6,1.9-5.4,2.5-8.4,1.9c-2.8-0.6-5.1-2.2-6.9-4.7
			C63.5,389,62.8,387.8,62.4,386.4z"/>
		<path fill="#ECA920" d="M72.9,368.3c-0.5-0.7-0.9-1.2-1.2-1.4c-0.6-0.4-1.2-0.3-2,0.1l-12.6,7.2c-0.7,0.4-1.1,0.9-1.1,1.5
			c0,0.4,0.2,1,0.6,1.9l-0.7,0.4l-5.4-9.5l0.7-0.4c0.5,0.8,0.9,1.3,1.3,1.5c0.6,0.4,1.2,0.4,2-0.1l5.4-3.1l-3.8-6.7l-5.4,3.1
			c-0.7,0.4-1.1,1-1.1,1.6c0,0.4,0.2,1,0.7,1.9l-0.7,0.4l-5.5-9.5l0.7-0.4c0.5,0.8,1,1.3,1.3,1.5c0.5,0.4,1.2,0.3,1.9-0.1l12.6-7.2
			c0.8-0.4,1.1-1,1.1-1.7c0-0.4-0.2-1-0.6-1.8l0.7-0.4l5.4,9.5l-0.7,0.4c-0.5-0.8-0.9-1.3-1.3-1.5c-0.6-0.4-1.2-0.3-2,0.1l-6,3.4
			l3.8,6.7l6-3.4c0.8-0.4,1.1-1,1.1-1.7c0-0.4-0.3-1-0.7-1.8l0.7-0.4l5.4,9.5L72.9,368.3z"/>
		<path fill="#ECA920" d="M60,345.4c-0.4-0.7-0.9-1.1-1.6-1.3c-0.5-0.1-1.4-0.2-2.8-0.2l-17.8-0.1l-0.4-0.8l11.5-12.8
			c1.3-1.4,2.1-2.4,2.4-3c0.3-0.6,0.3-1.2,0-1.9l0.7-0.3l4.1,9.6l-0.7,0.3c-0.5-0.9-0.8-1.6-1.1-1.8c-0.2-0.3-0.6-0.3-1.1-0.1
			c-0.2,0.1-0.5,0.3-0.9,0.7c-0.2,0.2-0.5,0.5-0.8,0.8l-1.3,1.5l2.9,6.7c1.3,0,2.1-0.1,2.5-0.1c0.8,0,1.4-0.1,1.7-0.3
			c0.4-0.2,0.6-0.6,0.5-1.2c0-0.4-0.2-0.9-0.5-1.6l0.7-0.3l2.6,6.1L60,345.4z M49.5,336.7l-5.1,5.6l0.1,0.2l7.5-0.1L49.5,336.7z"/>
		<path fill="#ECA920" d="M50.4,322.9c-0.4-1-0.8-1.7-1.2-2c-0.4-0.3-1.2-0.3-2.2,0.1l-12.6,3.9c-1.1,0.3-1.7,0.8-1.9,1.3
			c-0.1,0.4-0.1,1.1,0.2,2.2l-0.7,0.2l-3.1-9.9c-0.6-2.1-1-3.8-1-5.2c0-2.7,1.1-4.4,3.2-5.1c1.5-0.5,3-0.2,4.3,0.8
			c1,0.8,1.7,1.7,2.3,2.7l6.1-9.1c0.2-0.2,0.3-0.5,0.3-0.7c0-0.2,0-0.5-0.1-0.7l0.7-0.2l2,6.4l-6.6,10l0,0l5.6-1.7
			c1-0.3,1.6-0.7,1.9-1.2c0.2-0.5,0.2-1.3-0.1-2.3l0.7-0.2l3.3,10.4L50.4,322.9z M36.8,313.9c-0.8-0.7-2.1-0.8-3.8-0.2
			c-1.1,0.3-1.9,0.8-2.5,1.3c-0.9,0.9-1.1,2.1-0.6,3.6c0.3,0.8,0.5,1.3,0.8,1.5c0.3,0.2,0.6,0.2,1.1,0.1l7.2-2.3
			C38.3,316,37.6,314.6,36.8,313.9z"/>
		<path fill="#ECA920" d="M24.5,304.1l-4.1-19l5.9-1.3l0.2,0.9c-2,0.8-3.3,1.9-3.7,3.5c-0.2,0.9-0.2,2.1,0.1,3.7l15.4-3.3
			c1.1-0.2,1.7-0.6,2-1.1c0.3-0.5,0.3-1.4,0-2.7l0.7-0.2l2.4,11.3l-0.7,0.2c-0.3-1.2-0.6-2-1.1-2.3c-0.4-0.3-1.2-0.4-2.3-0.2
			l-15.4,3.3c0.4,1.5,0.8,2.7,1.4,3.4c1.1,1.3,2.7,1.9,4.8,1.6l0.2,0.9L24.5,304.1z"/>
		<path fill="#ECA920" d="M39.5,277.8l-0.8,0.1c-0.1-0.9-0.3-1.6-0.6-1.9c-0.4-0.6-1-0.8-1.8-0.7L22,277.2c-0.9,0.1-1.4,0.5-1.6,1.1
			c-0.1,0.4-0.2,1-0.1,2l-0.8,0.1l-2.3-18.5l6-0.7l0.1,0.8c-1.9,0.6-3.1,1.5-3.7,2.6c-0.6,1.1-0.7,2.9-0.4,5.5
			c0.1,1,0.3,1.6,0.5,1.8c0.2,0.2,0.6,0.3,1.2,0.3l6.9-0.9c-0.2-1.8-0.7-3-1.4-3.6c-0.7-0.6-1.9-0.9-3.6-1.1l-0.1-0.8l10-1.3
			l0.1,0.8c-1.7,0.4-2.8,1.1-3.4,1.8c-0.6,0.8-0.8,2.1-0.6,3.9l7.2-0.9c0.6-0.1,1-0.3,1.2-0.7c0.2-0.4,0.2-1.1,0.1-2.2
			c-0.3-2-0.8-3.7-1.7-4.9c-0.9-1.2-2.4-2.2-4.6-2.9l-0.1-0.9l6.3,0.5L39.5,277.8z"/>
		<path fill="#ECA920" d="M36,255.2c-0.1-1.1-0.3-1.8-0.7-2.2c-0.3-0.4-1.1-0.6-2.2-0.5L20,253c-1.1,0-1.9,0.3-2.2,0.8
			c-0.2,0.3-0.3,1-0.4,2.1l-0.8,0l-0.4-10.4c-0.1-2.2,0.1-3.9,0.4-5.3c0.7-2.6,2.2-4,4.4-4.1c1.6-0.1,2.9,0.6,3.9,1.9
			c0.7,1,1.2,2.1,1.5,3.2l8.2-7.2c0.2-0.2,0.4-0.4,0.4-0.6c0.1-0.2,0.1-0.5,0.1-0.7l0.7,0l0.3,6.7l-9,7.9v0l5.8-0.2
			c1,0,1.7-0.3,2.1-0.7c0.3-0.4,0.5-1.2,0.5-2.3l0.8,0l0.4,10.9L36,255.2z M25.2,243c-0.6-0.9-1.8-1.3-3.7-1.2
			c-1.2,0-2.1,0.3-2.7,0.6c-1.1,0.6-1.6,1.8-1.6,3.3c0,0.9,0.2,1.4,0.4,1.7c0.2,0.3,0.5,0.4,1,0.4l7.6-0.3
			C26.1,245.4,25.7,243.9,25.2,243z"/>
		<path fill="#ECA920" d="M36.2,230.9l-0.8-0.1c0-0.9,0-1.6-0.2-2c-0.3-0.6-0.8-1-1.7-1l-14.4-1.2c-0.9-0.1-1.5,0.2-1.8,0.8
			c-0.2,0.3-0.4,1-0.5,1.9l-0.8-0.1l1.5-18.5l6,0.5l-0.1,0.8c-1.9,0.3-3.3,0.8-4.1,1.8c-0.8,0.9-1.3,2.7-1.5,5.3
			c-0.1,1,0,1.6,0.1,1.9c0.2,0.3,0.5,0.4,1.1,0.5l6.9,0.6c0.2-1.8,0-3.1-0.6-3.8c-0.6-0.7-1.7-1.3-3.4-1.8l0.1-0.8l10,0.8l-0.1,0.8
			c-1.7,0.1-2.9,0.5-3.7,1.1c-0.8,0.7-1.2,1.9-1.4,3.7l7.2,0.6c0.6,0.1,1.1-0.1,1.3-0.4c0.3-0.3,0.4-1,0.5-2.1
			c0.2-2.1-0.1-3.8-0.7-5.1c-0.6-1.4-1.9-2.6-3.9-3.8l0.1-0.9l6.1,1.8L36.2,230.9z"/>
		<path fill="#ECA920" d="M37.4,208.1c0.1-0.8,0.1-1.4,0-1.8c-0.2-0.7-0.7-1.1-1.5-1.2l-14.5-2.5c-0.8-0.1-1.3,0.1-1.7,0.6
			c-0.2,0.3-0.5,0.9-0.7,1.7l-0.7-0.1l1.7-9.7c0.7-3.9,2.1-6.8,4.4-8.5c2.1-1.6,4.6-2.1,7.6-1.6c2.7,0.5,4.8,1.8,6.3,4
			c1.7,2.5,2.3,5.5,1.6,9.2l-1.7,10.1L37.4,208.1z M38.1,199.8c0.3-0.2,0.5-0.6,0.6-1.3c0.3-1.9,0-3.5-1.1-5c-1-1.4-3.3-2.4-6.8-3
			c-2.1-0.4-3.9-0.3-5.5,0.1c-2.6,0.6-4.1,2.2-4.5,4.7c-0.1,0.8-0.1,1.4,0.2,1.7c0.2,0.2,0.6,0.4,1.2,0.5l14.5,2.5
			C37.4,200.1,37.8,200,38.1,199.8z"/>
		<path fill="#ECA920" d="M38.4,171.7l0.3-0.9c2.3,0.2,4.1-0.2,5.4-1c1.3-0.8,2.2-1.9,2.6-3.3c0.4-1.4,0.4-2.5-0.1-3.2
			c-0.5-0.8-1.1-1.3-1.8-1.5c-0.9-0.3-1.6-0.2-2.4,0.3c-0.5,0.3-1.2,1-2.1,2l-1.5,1.7c-1.5,1.7-2.8,2.8-4,3.3
			c-1.1,0.5-2.4,0.6-3.7,0.2c-1.4-0.4-2.5-1.4-3.4-2.8c-0.9-1.4-1-3.2-0.3-5.4c0.3-1.1,0.8-2.1,1.5-3.1c0.6-0.9,1-1.5,1-1.6
			c0.1-0.3,0.1-0.6-0.1-0.8c-0.1-0.2-0.3-0.4-0.6-0.5l0.3-0.9l6.2,1.9l-0.3,0.9c-1.6,0-3,0.3-4.4,1c-1.4,0.7-2.2,1.8-2.7,3.2
			c-0.3,1-0.3,1.9,0,2.7c0.3,0.8,0.9,1.2,1.6,1.5c0.9,0.3,1.7,0.2,2.3-0.2c0.6-0.4,1.7-1.4,3.1-3.1l1.8-2c0.8-0.9,1.6-1.5,2.3-2
			c1.4-0.8,2.9-1,4.4-0.5c1.4,0.4,2.6,1.5,3.5,3.1c0.9,1.6,1,3.7,0.1,6.4c-0.2,0.6-0.4,1.2-0.7,1.8c-0.3,0.6-0.7,1.2-1.1,1.7
			l-0.4,0.5c-0.1,0.1-0.2,0.3-0.2,0.4c-0.1,0.1-0.1,0.2-0.1,0.3c-0.1,0.3-0.1,0.6,0.1,0.7c0.1,0.2,0.3,0.3,0.6,0.5l-0.3,0.9
			L38.4,171.7z"/>
		<path fill="#ECA920" d="M41.7,130.7c2.7-1.3,5.5-1.3,8.4-0.1c2.9,1.2,4.8,3.2,5.8,6c1,2.7,0.8,5.6-0.4,8.6
			c-1.3,3.2-3.4,5.4-6.2,6.6c-2.6,1.1-5.2,1.1-7.9,0c-2.9-1.2-4.9-3.2-5.9-5.9c-1.1-2.8-0.9-5.7,0.3-8.8
			C37.2,134,39.1,131.9,41.7,130.7z M52.8,138.7c-1.1-1-2.8-1.9-4.9-2.8c-2.9-1.2-5.3-1.7-7.2-1.3c-1.9,0.3-3.2,1.3-3.8,2.9
			c-0.9,2.3-0.3,4.3,1.8,6.2c1.1,1,2.8,1.9,4.9,2.8c2.1,0.9,4,1.4,5.5,1.5c2.8,0.2,4.7-0.8,5.6-3.1
			C55.5,142.5,54.9,140.5,52.8,138.7z"/>
		<path fill="#ECA920" d="M50.9,108.3c1.1-1,1.6-1.5,1.7-1.7c0.2-0.4,0.2-0.7,0.1-1.1c-0.1-0.4-0.3-0.6-0.6-0.9l0.4-0.8l6.1,3.4
			l-0.4,0.7c-1.7,0-3.1,0.1-4.3,0.4c-2.1,0.5-3.7,1.7-4.6,3.3c-1,1.9-1,3.7,0,5.3c1.1,1.6,2.9,3.1,5.4,4.5c1.9,1,3.5,1.6,5,1.8
			c2.7,0.4,4.8-0.6,6.1-3c0.8-1.5,1.2-3,1.1-4.7c0-1-0.3-2.2-0.7-3.7l1.1-0.5c0.5,1.7,0.8,3.2,0.9,4.3c0.1,2-0.4,3.9-1.4,5.7
			c-1.5,2.8-3.6,4.7-6.2,5.8c-2.8,1.2-5.7,0.9-8.6-0.6c-2.8-1.6-4.6-3.8-5.3-6.8c-0.6-2.8-0.2-5.5,1.3-8.3
			C49,110.3,49.8,109.2,50.9,108.3z"/>
		<path fill="#ECA920" d="M72.1,110.1c0.5-0.8,0.8-1.4,0.8-1.8c0.1-0.7-0.2-1.3-0.9-1.8l-12-8c-0.7-0.5-1.4-0.6-2-0.2
			c-0.4,0.2-0.8,0.7-1.4,1.5l-0.6-0.4l6.3-9.4l0.6,0.4c-0.5,0.9-0.8,1.5-0.9,1.9c-0.1,0.7,0.2,1.3,1,1.8l12,8
			c0.7,0.5,1.3,0.6,1.8,0.3c0.5-0.3,1.1-0.8,1.6-1.7l0.6,0.4l-6.3,9.4L72.1,110.1z"/>
		<path fill="#ECA920" d="M80.4,98.9l-0.6-0.5c0.6-0.7,0.9-1.3,1-1.8c0.1-0.7-0.1-1.3-0.8-1.8l-11.3-9c-0.7-0.5-1.3-0.7-2-0.4
			c-0.4,0.2-0.9,0.6-1.5,1.3l-0.6-0.5l11.6-14.6l4.7,3.7l-0.5,0.6c-1.8-0.9-3.2-1.1-4.4-0.8c-1.2,0.3-2.6,1.5-4.2,3.5
			c-0.6,0.8-0.9,1.3-0.9,1.7c0,0.3,0.2,0.7,0.6,1l5.4,4.3c1.2-1.4,1.7-2.6,1.6-3.5c-0.1-0.9-0.7-2-1.8-3.3l0.5-0.6l7.9,6.3l-0.5,0.6
			c-1.5-0.9-2.7-1.3-3.7-1.1s-2,0.9-3.2,2.3l5.7,4.5c0.5,0.4,0.9,0.5,1.3,0.4c0.4-0.1,0.9-0.6,1.6-1.5c1.3-1.6,2-3.2,2.3-4.6
			c0.2-1.5-0.1-3.2-1.1-5.3l0.6-0.7l4,4.9L80.4,98.9z"/>
		<path fill="#ECA920" d="M80.3,66.8l13.6-13.9l4.3,4.2l-0.6,0.7c-1.8-1.3-3.4-1.7-5-1.2c-0.9,0.3-1.9,1-3,2.1l11.3,11
			c0.8,0.8,1.5,1.1,2,1.1c0.5,0,1.3-0.5,2.2-1.5l0.5,0.5l-8,8.2L97,77.5c0.9-0.9,1.3-1.6,1.4-2.2c0-0.6-0.3-1.2-1.1-2L86,62.4
			c-1.1,1.2-1.8,2.2-2,3.1c-0.5,1.7-0.1,3.3,1.3,4.9l-0.6,0.7L80.3,66.8z"/>
		<path fill="#ECA920" d="M105.9,42.6l0.5,0.6c-0.8,0.8-1.3,1.3-1.5,1.5c-0.2,0.3-0.2,0.5,0,0.8c0.1,0.1,0.2,0.2,0.3,0.3
			c0.1,0.1,0.4,0.2,0.9,0.4l7.8,2.8l0,0l-0.7-6.3c0-0.4-0.1-0.8-0.2-1.4c-0.2-0.8-0.4-1.3-0.6-1.6c-0.3-0.4-0.7-0.5-1.2-0.4
			c-0.3,0.1-0.9,0.5-1.7,1.1l-0.5-0.6l5.5-4.5l0.5,0.6c-0.3,0.4-0.6,0.7-0.8,1c-0.2,0.4-0.3,0.8-0.2,1.3l1.1,11.1l3.5,4.2
			c0.7,0.9,1.3,1.3,1.9,1.3c0.5,0,1.2-0.4,2.2-1.1l0.5,0.6l-8.6,7.1l-0.5-0.6c0.9-0.8,1.4-1.4,1.5-2c0.1-0.5-0.2-1.2-0.9-2l-2.8-3.4
			L101,49.6c-0.7-0.3-1.4-0.3-2-0.1c-0.4,0.1-0.8,0.3-1.1,0.5l-0.5-0.6L105.9,42.6z"/>
	</g>
	<g>
		<path fill="#ECA920" d="M181.2,56.1c0.3,3-0.6,5.6-2.7,7.9c-2.1,2.3-4.6,3.5-7.6,3.5c-2.9,0-5.6-1.1-8-3.3c-2.6-2.3-3.9-5-4.1-8
			c-0.2-2.8,0.7-5.3,2.6-7.4c2.1-2.3,4.6-3.5,7.5-3.6c3-0.1,5.7,1,8.2,3.3C179.5,50.7,180.9,53.2,181.2,56.1z M170,63.9
			c1.3-0.7,2.8-2,4.3-3.7c2.1-2.4,3.3-4.5,3.7-6.4c0.3-1.9-0.2-3.4-1.5-4.6c-1.8-1.6-4-1.8-6.4-0.4c-1.3,0.7-2.7,2-4.2,3.7
			c-1.6,1.7-2.6,3.3-3.2,4.7c-1.1,2.6-0.8,4.7,1.1,6.3C165.4,65.1,167.5,65.2,170,63.9z"/>
		<path fill="#ECA920" d="M174.3,73c0.6,0.7,1.2,1.1,1.6,1.2c0.6,0.2,1.3,0.1,1.9-0.5l10.7-9.6c0.6-0.6,0.9-1.2,0.7-1.8
			c-0.1-0.4-0.5-1-1.1-1.7l0.6-0.5L201,73.7l-4.5,4l-0.5-0.6c1.1-1.5,1.6-2.9,1.6-4.1c-0.1-1.2-1-2.7-2.7-4.6
			c-0.6-0.7-1.1-1.1-1.4-1.1c-0.3-0.1-0.7,0.1-1.1,0.5l-5.1,4.6c1.1,1.3,2.2,2,3.1,2c0.9,0,2.1-0.4,3.5-1.2l0.5,0.6l-7.5,6.7
			l-0.5-0.6c1.1-1.2,1.6-2.4,1.7-3.3c0.1-1-0.4-2.1-1.6-3.4l-5.2,4.6c-0.7,0.6-0.9,1.2-0.7,1.8c0.2,0.6,0.7,1.3,1.5,2.2l-0.6,0.5
			l-7.8-8.7L174.3,73z"/>
		<path fill="#ECA920" d="M193.6,95.6c0.7,0.8,1.2,1.3,1.7,1.4c0.5,0.1,1.2-0.1,2-0.7l10.9-7.4c0.9-0.6,1.4-1.2,1.4-1.7
			c0-0.5-0.2-1.2-0.7-2.1l0.6-0.4l5.9,8.6c1.6,2.3,2.4,4.2,2.5,5.9c0.1,1.7-0.6,3-2.3,4.2c-0.8,0.6-1.7,0.8-2.8,0.9
			c-1,0-2.1-0.4-3.3-1.1c-0.9-0.6-1.6-1.3-2.2-2c-0.6-0.8-1.5-1.9-2.6-3.5l-4.6,3.1c-0.9,0.6-1.4,1.2-1.4,1.7
			c-0.1,0.5,0.2,1.2,0.8,2.2l-0.6,0.4L193,96L193.6,95.6z M208.4,99.7c1.1,0.5,2.4,0.2,4.1-0.9c1.1-0.8,1.9-1.6,2.3-2.5
			c0.4-0.9,0.2-1.9-0.6-3c-0.4-0.5-0.7-0.9-1-1c-0.3-0.2-0.6-0.1-0.9,0.1l-6.6,4.5C206.9,98.5,207.7,99.4,208.4,99.7z"/>
		<path fill="#ECA920" d="M205.4,112.9c0.4,0.7,0.8,1.2,1.2,1.5c0.6,0.4,1.2,0.4,2,0l12.7-6.9c0.7-0.4,1.1-0.9,1.1-1.5
			c0-0.4-0.2-1-0.6-1.9l0.7-0.4l5.2,9.6l-0.7,0.4c-0.5-0.8-0.9-1.3-1.2-1.6c-0.6-0.4-1.2-0.4-2,0l-5.4,2.9l3.7,6.8l5.4-2.9
			c0.8-0.4,1.1-0.9,1.1-1.6c0-0.4-0.2-1-0.6-1.9l0.7-0.4l5.2,9.7l-0.7,0.4c-0.5-0.8-0.9-1.3-1.3-1.5c-0.5-0.4-1.2-0.3-1.9,0.1
			l-12.7,6.9c-0.8,0.4-1.1,1-1.1,1.7c0,0.4,0.2,1,0.6,1.8l-0.7,0.4l-5.2-9.7l0.7-0.4c0.5,0.8,0.9,1.3,1.2,1.6c0.6,0.4,1.2,0.4,2,0
			l6.1-3.3l-3.7-6.8l-6.1,3.3c-0.8,0.4-1.1,1-1.1,1.7c0,0.4,0.2,1,0.6,1.8l-0.7,0.4l-5.2-9.6L205.4,112.9z"/>
		<path fill="#ECA920" d="M239.8,138.8l-0.7,0.3c-0.5-1-0.8-1.6-1-1.9c-0.2-0.3-0.5-0.3-0.7-0.2c-0.1,0-0.3,0.1-0.4,0.2
			c-0.1,0.1-0.3,0.3-0.7,0.7l-5,6.6l0,0l6.2,1.2c0.4,0.1,0.8,0.2,1.4,0.2c0.8,0.1,1.3,0,1.7-0.1c0.5-0.2,0.7-0.5,0.7-1
			c0-0.3-0.2-1-0.5-2l0.7-0.3l2.7,6.6l-0.7,0.3c-0.3-0.4-0.5-0.8-0.7-1c-0.3-0.3-0.7-0.5-1.1-0.6l-10.9-2.2l-5.1,2.1
			c-1.1,0.4-1.7,0.9-1.8,1.4c-0.1,0.5,0,1.3,0.4,2.4l-0.7,0.3l-4.2-10.4l0.7-0.3c0.5,1.1,1,1.8,1.4,2c0.5,0.2,1.2,0.1,2.2-0.3
			l4.1-1.6l7-9.2c0.5-0.6,0.7-1.2,0.7-1.8c0-0.4-0.1-0.8-0.2-1.2l0.7-0.3L239.8,138.8z"/>
		<path fill="#ECA920" d="M232.9,157.8l0.3,0.9c-2,1.1-3.3,2.4-3.9,3.8c-0.6,1.4-0.7,2.8-0.3,4.2c0.4,1.4,1,2.3,1.9,2.6
			c0.8,0.4,1.6,0.5,2.4,0.2c0.9-0.3,1.5-0.8,1.8-1.5c0.2-0.5,0.4-1.5,0.6-2.9l0.3-2.2c0.3-2.2,0.8-3.9,1.5-5
			c0.7-1.1,1.6-1.8,2.9-2.2c1.4-0.4,2.9-0.3,4.4,0.4c1.5,0.7,2.6,2.2,3.3,4.3c0.3,1.1,0.5,2.2,0.5,3.4c0,1.1,0,1.8,0.1,1.9
			c0.1,0.3,0.3,0.5,0.5,0.6s0.5,0.1,0.8,0.1l0.3,0.9l-6.2,1.9l-0.3-0.9c1.3-0.8,2.3-1.9,3.1-3.3c0.7-1.3,0.9-2.7,0.4-4.2
			c-0.3-1-0.8-1.8-1.5-2.2c-0.7-0.4-1.4-0.5-2.2-0.3c-0.9,0.3-1.5,0.8-1.8,1.4c-0.3,0.7-0.6,2.1-0.9,4.3l-0.4,2.6
			c-0.2,1.2-0.5,2.1-0.8,2.9c-0.7,1.5-1.9,2.4-3.4,2.9c-1.4,0.4-3,0.2-4.6-0.6c-1.6-0.8-2.9-2.6-3.7-5.3c-0.2-0.6-0.3-1.3-0.4-1.9
			c-0.1-0.7-0.1-1.3-0.1-2l0-0.7c0-0.2,0-0.3,0-0.4c0-0.1,0-0.2-0.1-0.3c-0.1-0.3-0.2-0.5-0.5-0.6c-0.2-0.1-0.5-0.1-0.8-0.1
			l-0.3-0.9L232.9,157.8z"/>
		<path fill="#ECA920" d="M232.2,177.7c0.2,0.9,0.5,1.5,0.7,1.9c0.4,0.6,1.1,0.8,2,0.6l14.1-3.2c0.9-0.2,1.4-0.6,1.5-1.3
			c0.1-0.4,0.1-1.1-0.1-2l0.7-0.2l2.5,11l-0.7,0.2c-0.3-1-0.5-1.6-0.8-2c-0.4-0.5-1.1-0.7-1.9-0.5l-14.1,3.2
			c-0.8,0.2-1.3,0.6-1.5,1.1c-0.2,0.6-0.1,1.3,0.1,2.3l-0.7,0.2l-2.5-11L232.2,177.7z"/>
		<path fill="#ECA920" d="M255.1,208.8c-1.6,2.5-4,4-7.1,4.4c-3.1,0.5-5.8-0.3-8.1-2.2c-2.2-1.9-3.6-4.4-4.1-7.6
			c-0.5-3.4,0.1-6.3,1.9-8.8c1.7-2.3,3.9-3.7,6.7-4.1c3.1-0.5,5.8,0.2,8.1,2c2.3,1.8,3.7,4.4,4.2,7.8
			C257.3,203.6,256.7,206.4,255.1,208.8z M241.5,207.6c1.5,0.3,3.4,0.2,5.7-0.1c3.1-0.5,5.4-1.3,6.9-2.6s2-2.7,1.8-4.5
			c-0.4-2.4-1.9-3.9-4.7-4.4c-1.5-0.3-3.4-0.2-5.6,0.1c-2.3,0.3-4.1,0.8-5.5,1.5c-2.5,1.3-3.6,3.1-3.2,5.5
			C237.2,205.7,238.7,207.1,241.5,207.6z"/>
		<path fill="#ECA920" d="M258.5,216.8l1.1,19.4l-6,0.4l-0.1-0.9c2.1-0.4,3.5-1.4,4.2-2.9c0.4-0.8,0.5-2.1,0.5-3.7l-15.7,0.9
			c-1.1,0.1-1.8,0.3-2.1,0.7s-0.5,1.3-0.4,2.6l-0.8,0l-0.7-11.5l0.8,0c0.1,1.3,0.3,2.1,0.7,2.5c0.4,0.4,1.1,0.6,2.2,0.5l15.7-0.9
			c-0.1-1.6-0.4-2.8-0.9-3.6c-0.9-1.5-2.4-2.3-4.5-2.4l-0.1-0.9L258.5,216.8z"/>
		<path fill="#ECA920" d="M240.2,240.2c0,0.9,0,1.5,0.2,1.8c0.3,0.6,0.8,1,1.7,1l14.4,1c0.8,0.1,1.4-0.2,1.8-0.7
			c0.2-0.3,0.4-0.9,0.5-1.9l0.8,0.1l-0.7,10.9l-0.8-0.1c0-0.9-0.1-1.6-0.2-2c-0.3-0.6-0.8-1-1.7-1l-6.2-0.4l-0.5,7.7l6.2,0.4
			c0.9,0.1,1.5-0.2,1.8-0.7c0.2-0.3,0.4-1,0.5-2l0.8,0.1l-0.7,11l-0.8-0.1c0-0.9-0.1-1.6-0.2-2c-0.3-0.6-0.8-0.9-1.7-1l-14.4-1
			c-0.9-0.1-1.5,0.2-1.8,0.8c-0.2,0.4-0.4,1-0.4,1.8l-0.8-0.1l0.7-11l0.8,0.1c0,0.9,0,1.6,0.2,2c0.3,0.6,0.8,1,1.7,1l6.9,0.5
			l0.5-7.7l-6.9-0.5c-0.9-0.1-1.5,0.2-1.9,0.9c-0.2,0.4-0.3,1-0.4,1.9l-0.8-0.1l0.7-10.9L240.2,240.2z"/>
		<path fill="#ECA920" d="M237.5,266.4l0.7,0.1c-0.1,0.9-0.1,1.6,0,2c0.2,0.6,0.7,1,1.6,1.2l14.3,2.3c0.9,0.1,1.5-0.1,1.9-0.6
			c0.2-0.3,0.5-0.9,0.6-1.9l0.7,0.1l-2.9,18.4l-5.9-0.9l0.1-0.8c2-0.1,3.4-0.6,4.2-1.4c0.9-0.9,1.5-2.6,1.9-5.1c0.2-1,0.2-1.6,0-1.9
			s-0.5-0.5-1.1-0.6l-6.8-1.1c-0.3,1.8-0.2,3.1,0.3,3.8c0.5,0.7,1.6,1.4,3.2,2l-0.1,0.8l-10-1.6l0.1-0.8c1.7,0,3-0.2,3.8-0.8
			c0.8-0.6,1.3-1.8,1.6-3.6l-7.1-1.1c-0.6-0.1-1.1,0-1.4,0.3c-0.3,0.3-0.5,1-0.7,2.1c-0.3,2-0.2,3.8,0.3,5.2s1.7,2.8,3.6,4.1
			l-0.1,0.9l-5.9-2.3L237.5,266.4z"/>
		<path fill="#ECA920" d="M234.6,289c-0.2,1.1-0.2,1.8,0,2.3c0.2,0.5,0.9,0.8,1.9,1.1l12.8,3.3c1.1,0.3,1.9,0.2,2.4-0.1
			c0.3-0.2,0.6-0.9,1-1.9l0.7,0.2l-2.6,10.1c-0.5,2.1-1.2,3.7-1.9,4.9c-1.5,2.3-3.3,3.2-5.4,2.6c-1.6-0.4-2.6-1.4-3.2-2.9
			c-0.4-1.2-0.6-2.3-0.5-3.5l-9.9,4.5c-0.3,0.1-0.5,0.3-0.6,0.4c-0.1,0.2-0.2,0.4-0.3,0.7l-0.7-0.2l1.7-6.5l10.9-5l0,0l-5.7-1.5
			c-1-0.3-1.7-0.3-2.2,0c-0.4,0.3-0.8,1-1.1,2l-0.7-0.2l2.7-10.6L234.6,289z M241.5,303.8c0.3,1,1.3,1.7,3.2,2.2
			c1.1,0.3,2,0.3,2.8,0.2c1.2-0.3,2.1-1.2,2.5-2.8c0.2-0.8,0.3-1.4,0.1-1.7c-0.1-0.3-0.4-0.5-0.9-0.6l-7.4-1.9
			C241.4,301.3,241.2,302.8,241.5,303.8z"/>
		<path fill="#ECA920" d="M228.4,312.9c-0.2,0.7-0.1,1.4,0.3,2.1c0.3,0.4,0.9,1.1,1.9,2.1l12.8,12.4l-0.3,0.8l-17.2,1.3
			c-1.9,0.2-3.2,0.3-3.8,0.5c-0.6,0.2-1,0.6-1.3,1.3l-0.7-0.3l3.6-9.8l0.7,0.3c-0.3,1-0.5,1.7-0.5,2c0,0.4,0.2,0.6,0.7,0.8
			c0.2,0.1,0.6,0.1,1.1,0.1c0.3,0,0.7,0,1.1,0l2-0.1l2.5-6.8c-0.9-0.9-1.6-1.4-1.9-1.7c-0.6-0.5-1.1-0.9-1.4-1
			c-0.4-0.1-0.8,0-1.2,0.6c-0.2,0.3-0.5,0.8-0.7,1.5l-0.7-0.3l2.3-6.2L228.4,312.9z M230.1,326.4l7.6-0.5l0.1-0.3l-5.5-5.1
			L230.1,326.4z"/>
		<path fill="#ECA920" d="M219.7,335.8c-0.4,1-0.5,1.7-0.4,2.2c0.2,0.5,0.7,0.9,1.7,1.4l11.9,5.8c1,0.5,1.7,0.6,2.2,0.4
			c0.4-0.2,0.9-0.8,1.5-1.7l0.7,0.3l-4.5,9.4c-1.2,2.5-2.5,4.2-3.9,5.1c-1.4,0.9-3,1-4.8,0.1c-0.9-0.4-1.6-1.1-2.1-2
			c-0.5-0.9-0.7-2-0.7-3.4c0.1-1,0.3-2,0.7-2.9c0.4-0.9,1-2.2,1.8-4l-5-2.4c-1-0.5-1.7-0.6-2.2-0.4c-0.5,0.2-1,0.8-1.5,1.8l-0.7-0.3
			l4.7-9.7L219.7,335.8z M223.5,350.7c0.1,1.2,1,2.2,2.8,3.1c1.2,0.6,2.3,0.8,3.3,0.8c1-0.1,1.8-0.8,2.4-2c0.3-0.6,0.4-1,0.4-1.3
			c0-0.3-0.2-0.6-0.6-0.7l-7.2-3.5C223.9,348.8,223.5,350,223.5,350.7z"/>
		<path fill="#ECA920" d="M221.5,374l-0.6-0.4c0.5-1,0.8-1.6,0.9-1.9c0.1-0.3,0-0.6-0.3-0.7c-0.1-0.1-0.3-0.1-0.4-0.2
			c-0.2,0-0.5-0.1-0.9-0.1l-8.3-0.1l0,0l2.7,5.7c0.2,0.4,0.4,0.8,0.6,1.2c0.4,0.7,0.8,1.1,1.1,1.3c0.4,0.3,0.9,0.3,1.2,0
			c0.3-0.2,0.7-0.7,1.3-1.6l0.6,0.4l-3.7,6l-0.6-0.4c0.2-0.5,0.3-0.9,0.4-1.2c0-0.4,0-0.9-0.2-1.3l-4.7-10.1l-4.7-2.9
			c-1-0.6-1.7-0.8-2.2-0.6c-0.5,0.2-1.1,0.8-1.7,1.7l-0.6-0.4l5.9-9.5l0.6,0.4c-0.6,1-0.9,1.8-0.8,2.3c0.1,0.5,0.6,1.1,1.5,1.6
			l3.7,2.3l11.5,0.2c0.8,0,1.4-0.2,1.9-0.5c0.3-0.2,0.6-0.5,0.8-0.8l0.6,0.4L221.5,374z"/>
	</g>
	<g>
		<g>
			<path fill="#ECA920" d="M97.9,410.5c-0.7,0.7-1.5,1.3-2.2,1.7c-0.7,0.4-1.4,0.7-2.1,0.7c-0.7,0.1-1.3,0-1.9-0.2
				c-0.6-0.2-1.1-0.6-1.6-1.1l-1.9-1.9l9-9l1.9,1.9c0.5,0.5,0.8,1,1.1,1.6c0.2,0.6,0.3,1.2,0.2,1.9c-0.1,0.7-0.3,1.4-0.8,2.1
				C99.2,409.1,98.6,409.8,97.9,410.5z M97,409.7c0.6-0.6,1.1-1.2,1.5-1.8c0.3-0.6,0.6-1.1,0.7-1.7c0.1-0.5,0.1-1-0.1-1.4
				c-0.1-0.4-0.4-0.8-0.7-1.2l-1-1l-7.4,7.4l1,1c0.3,0.3,0.7,0.6,1.2,0.7c0.4,0.1,0.9,0.2,1.4,0.1c0.5-0.1,1.1-0.3,1.7-0.7
				C95.8,410.8,96.4,410.3,97,409.7z"/>
			<path fill="#ECA920" d="M95.9,417.5l9-9l0.9,0.9l-9,9L95.9,417.5z"/>
			<path fill="#ECA920" d="M103.8,425.3c-0.5-0.2-1-0.6-1.4-1c-0.5-0.5-0.8-1.1-1-1.7c-0.2-0.6-0.2-1.3-0.1-1.9s0.4-1.4,0.8-2.1
				c0.4-0.7,1-1.4,1.7-2.1c0.7-0.7,1.4-1.2,2.1-1.7c0.7-0.4,1.4-0.7,2.1-0.9c0.7-0.2,1.3-0.2,1.9,0c0.6,0.1,1.2,0.5,1.6,0.9
				c0.4,0.4,0.8,0.9,0.9,1.5c0.2,0.5,0.2,1.1,0.1,1.7l-1.2,0c0.1-0.5,0.1-0.9,0-1.3c-0.1-0.4-0.3-0.8-0.6-1.1
				c-0.4-0.4-0.8-0.6-1.3-0.7c-0.5-0.1-1,0-1.5,0.2c-0.5,0.2-1.1,0.4-1.6,0.8c-0.6,0.4-1.1,0.8-1.6,1.4c-0.6,0.6-1,1.1-1.4,1.7
				c-0.4,0.6-0.6,1.1-0.8,1.6c-0.2,0.5-0.2,1-0.1,1.5c0.1,0.5,0.3,0.9,0.7,1.3c0.3,0.3,0.5,0.5,0.8,0.6c0.3,0.1,0.6,0.2,0.8,0.2l3-3
				l-1.3-1.3l0.8-0.8l2.1,2.1l-4.3,4.3C104.7,425.6,104.2,425.5,103.8,425.3z"/>
			<path fill="#ECA920" d="M111.3,432.9l4.3-10.6l0,0l-7.5,7.5l-0.8-0.8l9-9l1.1,1.1l-4.4,10.6l0,0l7.5-7.5l0.8,0.8l-9,9
				L111.3,432.9z"/>
			<path fill="#ECA920" d="M119.1,440.7l1.7-2.8l-2.8-2.8l-2.8,1.7l-0.9-0.9l11.2-6.7l1.2,1.2l-6.8,11.2L119.1,440.7z M125.4,430.7
				L125.4,430.7l-6.5,3.9l2.5,2.5L125.4,430.7z"/>
		</g>
		<g>
			<path fill="#ECA920" d="M160.4,433.3c0.4,0.4,0.7,0.8,0.9,1.2c0.2,0.4,0.3,0.8,0.3,1.2s-0.1,0.8-0.2,1.2c-0.2,0.4-0.4,0.7-0.7,1
				c-0.4,0.4-0.9,0.8-1.5,1c-0.6,0.2-1.1,0.2-1.7,0.2l-0.1-1.1c0.5,0.1,0.9,0,1.4-0.1c0.4-0.1,0.8-0.4,1.1-0.7
				c0.4-0.4,0.6-0.9,0.6-1.4c0-0.6-0.3-1.1-0.8-1.6c-0.3-0.2-0.5-0.4-0.8-0.5c-0.3-0.1-0.6-0.2-0.8-0.2c-0.3,0-0.6,0-0.9,0.1
				c-0.3,0.1-0.6,0.1-0.9,0.2c-0.4,0.1-0.7,0.2-1.1,0.3c-0.4,0.1-0.7,0.1-1.1,0.1c-0.4,0-0.7-0.1-1.1-0.3c-0.4-0.2-0.7-0.4-1.1-0.8
				c-0.4-0.4-0.7-0.8-0.9-1.2c-0.2-0.4-0.3-0.8-0.3-1.3c0-0.4,0.1-0.8,0.3-1.2c0.2-0.4,0.4-0.7,0.7-1c0.4-0.4,0.8-0.7,1.3-0.9
				c0.5-0.2,0.9-0.2,1.4-0.2l0.1,1.1c-0.4-0.1-0.8,0-1.1,0.1c-0.3,0.1-0.6,0.3-0.9,0.6c-0.2,0.2-0.3,0.4-0.4,0.6
				c-0.1,0.2-0.2,0.5-0.2,0.7c0,0.3,0.1,0.5,0.2,0.8s0.3,0.6,0.6,0.9c0.3,0.2,0.5,0.4,0.8,0.5c0.3,0.1,0.5,0.2,0.8,0.2
				c0.3,0,0.5,0,0.8-0.1c0.3-0.1,0.6-0.1,0.8-0.2c0.3-0.1,0.7-0.2,1.1-0.3c0.4-0.1,0.8-0.1,1.1-0.1c0.4,0,0.8,0.1,1.1,0.3
				C159.7,432.7,160.1,433,160.4,433.3z"/>
			<path fill="#ECA920" d="M165.1,433.1l-8.8-8.7l3.5-3.6l0.8,0.8l-2.7,2.7l3.1,3.1l2.5-2.5l0.7,0.7l-2.5,2.5l3.4,3.4l2.8-2.8
				l0.8,0.8L165.1,433.1z"/>
			<path fill="#ECA920" d="M173.6,424.5c-0.4,0.4-0.9,0.7-1.5,0.9c-0.6,0.2-1.2,0.2-1.8,0c-0.6-0.1-1.3-0.4-2-0.8
				c-0.7-0.4-1.4-0.9-2.1-1.6c-0.7-0.7-1.2-1.3-1.6-2c-0.4-0.7-0.7-1.4-0.9-2c-0.1-0.7-0.1-1.3,0-1.8c0.1-0.6,0.4-1.1,0.9-1.5
				c0.4-0.4,0.9-0.7,1.5-0.9c0.6-0.1,1.2-0.1,1.9,0c0.7,0.1,1.3,0.4,2,0.8c0.7,0.4,1.4,0.9,2,1.6c0.4,0.4,0.8,0.9,1.1,1.3
				c0.3,0.5,0.6,0.9,0.8,1.4c0.2,0.5,0.3,0.9,0.4,1.3c0.1,0.4,0,0.8-0.1,1.1l0,0l1.8-1.8l0.8,0.7L173.6,424.5z M171.1,418
				c-0.5-0.5-1-0.9-1.6-1.3c-0.5-0.4-1.1-0.6-1.6-0.8c-0.5-0.2-1-0.2-1.4-0.1c-0.4,0.1-0.8,0.2-1.1,0.6c-0.3,0.3-0.5,0.7-0.6,1.1
				c-0.1,0.4,0,0.9,0.2,1.4c0.2,0.5,0.4,1,0.8,1.6c0.4,0.5,0.8,1.1,1.3,1.6c0.5,0.5,1.1,0.9,1.6,1.3c0.5,0.3,1.1,0.6,1.6,0.8
				c0.5,0.2,1,0.2,1.4,0.1c0.4-0.1,0.8-0.3,1.1-0.6c0.3-0.3,0.5-0.7,0.5-1.2c0-0.5,0-0.9-0.2-1.4c-0.2-0.5-0.4-1-0.8-1.6
				C172,419,171.6,418.5,171.1,418z"/>
			<path fill="#ECA920" d="M181.9,412.5c0.3,0.5,0.5,1,0.6,1.5c0.1,0.5,0.1,1-0.1,1.5c-0.2,0.5-0.5,1-0.9,1.5
				c-0.5,0.5-0.9,0.8-1.4,0.9c-0.5,0.2-1,0.2-1.5,0.1c-0.5-0.1-1-0.3-1.5-0.6c-0.5-0.3-1-0.7-1.4-1.2l-5.7-5.7l0.9-0.9l5.6,5.6
				c0.3,0.3,0.7,0.6,1,0.9c0.4,0.3,0.7,0.5,1.1,0.6c0.4,0.1,0.7,0.1,1.1,0.1c0.4-0.1,0.7-0.3,1-0.6c0.3-0.3,0.5-0.7,0.6-1
				s0-0.7-0.1-1.1c-0.1-0.4-0.3-0.7-0.6-1.1c-0.3-0.4-0.6-0.7-0.9-1l-5.6-5.6l0.9-0.9l5.7,5.7C181.2,411.5,181.6,412,181.9,412.5z"
				/>
			<path fill="#ECA920" d="M186.5,411.4l-8.8-8.7l0.9-0.9l8.8,8.7L186.5,411.4z"/>
		</g>
	</g>
	<path fill="#BB5064" d="M131.4,325.2c-0.1,0.1-0.2,0.2-0.3,0.4c-0.1,0.2-0.3,0.3-0.5,0.4c-0.1,0.1-0.2,0.1-0.3,0.1
		c-0.4,0-0.4-0.6-0.4-0.9c0-0.4-0.1-0.7-0.3-1c-0.3-0.4-0.4-0.2-0.2-0.6c0.3-0.6,1.1-1.3,1.7-1.4c0.3-0.1,0.7-0.1,1-0.2
		c0.4-0.1,0.7-0.2,1-0.2c0.6-0.1,1.2,0,1.8,0c0.1,0,0.2,0,0.3,0c0.2-0.1,0.3-0.4,0.4-0.6c0.1-0.2,0.4-0.3,0.6-0.3
		c0.6-0.3,1.2-0.6,1.7-1c0.5-0.4,0.9-0.4,1.5-0.4c0.7,0.1,1.4,0.2,2.1,0.3c0.5,0.1,1.1,0.2,1.6,0.3c0.6,0.2,1.1,0.6,1.6,0.9
		c1.1,0.6,2.4,1.2,3.6,1.2c0.3,0,0.5,0.3,0.5,0.3s0,0.8,0,1c-0.1,0.3-0.2,0.7-0.3,1c-0.2,0.4-0.5,0.7-0.8,0.9
		c-0.9,0.7-1.8,1.6-2.5,2.5c-0.1,0.1-0.1,0.1-0.1,0.2c0,0.1,0,0.1,0,0.2c0.2,0.8,0.4,1.6,0.3,2.5c-0.1,0.5,0,1.3-0.3,1.7
		c-0.1,0.1-0.8,1.2-0.8,1.4c0,0.8-0.2,1.7-0.4,2.5c-0.1,0.4-0.8,1.6-0.4,2c0.3,0.3,0.4,0.9,0.4,1c0,0.1-0.4,0.7-0.4,1
		c-0.1,0.8-0.3,1.8,0,2.6c0.1,0.3,0.3,0.6,0.4,0.9c0.3,0.7,0.3,1.6,0.5,2.4c0.1,0.9,0.2,1.8,0.3,2.7c0,0.5,0,1,0.1,1.4
		c0.1,0.6,0.2,1.1,0.4,1.6c0.5,1.5,1,3,1.5,4.6c0.4,1.6,0.7,3.3,1.4,4.9c1.3,3,3.1,5.6,5.5,7.9c0.4,0.4,0.8,0.8,1.3,1
		c0.4,0.2,0.8,0.2,1.2,0.3c0.5,0.1,1,0.2,1.6,0.1c0.5,0,1-0.2,1.5-0.5c0.5-0.3,1-0.6,1.4-1.1c0.4-0.6,0.6-1.3,0.6-2
		c0-0.7-0.1-1.4-0.3-2.1c-0.1-0.4-0.3-0.8-0.5-1.1c-0.2-0.2-0.3-0.4-0.5-0.6c-0.2-0.2-0.4-0.4-0.6-0.5c-0.3-0.1-0.6-0.1-0.9-0.2
		c-0.3,0-0.6,0-0.8,0.1c-0.6,0.2-0.6,1.1-0.6,1.7c0,0.1,0,0.2,0,0.3c-0.1,0.3-0.5,0.4-0.8,0.4c-0.3-0.1-0.6-0.3-0.8-0.6
		c-0.4-0.5-0.8-1.2-1-1.9c-0.1-0.3-0.1-0.5-0.3-0.7c-0.1-0.2-0.3-0.4-0.4-0.5c-0.5-0.5-1-0.9-1.6-1.2c-0.2-0.1-0.4-0.2-0.5-0.4
		c-0.1-0.1,0-0.3,0-0.4c0-0.5,0.1-1,0-1.6c0-0.6-0.1-1.3-0.1-1.9c-0.1-0.7-0.1-1.5-0.2-2.2c-0.1-0.5-0.2-1.1-0.4-1.6
		c-0.2-0.4-0.5-0.7-0.8-1c-0.1-0.1-0.7-0.7-0.6-0.9c0-0.1,1.1,0.5,1.2,0.6c0.6,0.4,1,1,1.3,1.7c0.2,0.5,0.5,1,0.7,1.6
		c0.1,0.3,0.2,0.5,0.4,0.8c0.2,0.3,0.5,0.3,0.8,0.6c-0.1-0.8-0.1-1.6-0.1-2.3c0.1-1.3,0.1-2.5,0.7-3.7c1-2,2.9-3.1,4.6-4.3
		c0.5-0.3,0.9-0.7,1.2-1.2c0.3-0.5,0.3-1.1,0.1-1.7c-0.2-0.5-0.5-1-0.9-1.4c-0.2-0.2-0.3-0.3-0.5-0.4c-0.2-0.1-0.4-0.1-0.5-0.1
		c-1.1-0.1-2.1,0.1-3.2,0.4c0,0,0.3-0.5,0.4-0.6c0.2-0.2,0.5-0.4,0.8-0.6c0.6-0.3,1.2-0.6,1.9-0.6c0.7-0.1,1.5-0.1,2.3,0.1
		c0.3,0.1,0.8,0.1,1.1,0.2c0.1,0,0.7,0.5,0.8,0.5c0.3-0.4,0.3-1.1,0.3-1.6c0-0.4,0-0.8-0.1-1.1c0-0.1-0.4-0.9-0.5-0.9
		c0.8,0.2,1.3,0.8,1.9,1.4c1.1,1.2,1.9,2.7,1.1,4.6c-0.3,0.7-0.8,1.3-1.3,2c-0.1,0.1-0.1,0.2-0.1,0.3c0,0.1,0.1,0.1,0.1,0.2
		c0.5,0.5,1.7,0.5,2.2,0.1c0.2-0.2,0.4-0.5,0.5-0.8c0.3-0.7,0.6-1.5,0.5-2.3c0-0.7-0.2-1.3-0.1-2c0.1-0.8,0.6-1.6,1.2-2.1
		c0.8-0.6,1.9-0.4,2.8-0.2c-0.6-0.1-1.5,0.7-1.9,1.1c-0.5,0.6-0.7,1.4-0.6,2.1c0.1,0.9,0.3,1.8,0.5,2.7c0.1,0.7,0.1,1.3-0.1,2
		c-0.1,0.3-0.2,0.7-0.4,1c-0.3,0.3-0.6,0.4-0.8,0.7c-0.3,0.4-0.1,0.9,0.1,1.4c0.3,0.6,0.4,1.2,0.1,1.8c-0.2,0.6-0.7,1.1-1.2,1.4
		c-1,0.5-2.1,0.5-3.2,0.2c0.6,0.1,1.3-0.2,1.7-0.6c0.2-0.2,0.4-0.4,0.4-0.7c0.2-1.1-0.9-2.3-1.7-2.8c-1.9-1.3-4.5-0.6-6.1,0.9
		c-1.3,1.2-1.9,3.1-1.8,4.9c0.1,0.8,0.2,1.9,0.6,2.6c0.7,1.2,1.7,2.2,2.7,3.3c1,1.2,2,2.3,3.1,3.5c0.9,1,1.8,2.1,2.2,3.5
		c0.7,2.5,0,5.4-1.9,7.2c-0.8,0.8-1.8,1.4-2.9,1.9c-1.7,0.8-3.5,1.3-5.4,1.1c-1.5-0.1-2.9-0.6-4.1-1.4c-0.3-0.2-2.8-1.7-2.5-2.2
		c-0.4,0.8-0.8,1.6-1.3,2.3c-0.6,0.7-1.2,1.2-1.6,2c-0.4,0.7-0.6,1.6-0.3,2.4c0.1,0.3,0.3,0.5,0.4,0.8c0.4,0.6,0.9,1.3,1.5,1.8
		c0.5,0.4,1.1,0.5,1.5,0.8c0.7,0.5,0.3,1.1,0.5,1.8c0.2,0.7,0.7,1.2,0.7,1.9c0,0.2-0.1,0.5-0.1,0.7c0,0.3,0.2,0.5,0.4,0.7
		c0.6,0.6,1.3,0.9,2.1,1.1c0.2,0-0.3,2-0.3,2.2c-0.4,2.4-2.1,4.1-4,5.5c-0.8,0.6-1.7,1.2-2.5,1.9c-0.7,0.5-1.8,1.3-2.1,2.2
		c0,0.1-0.4,1-0.4,1c-0.4-0.6-0.3-1,0-1.6c0.1-0.3,0.2-0.7,0-0.9c-0.2-0.2-0.5-0.3-0.7-0.3c-0.3,0-0.6,0-0.9,0.1
		c-0.8,0.3-1,1.2-1.3,1.8c0.1-0.1-0.2-0.6-0.2-0.7c-0.1-0.4,0-0.8,0.1-1.1c0.1-0.2,0.1-0.4,0.1-0.6c0-0.2-0.1-0.3-0.1-0.5
		c0-0.1-0.1-0.2-0.1-0.2c-0.1-0.1-0.2-0.1-0.3-0.2c-0.2-0.1-0.3-0.1-0.5-0.1c-0.5,0-0.9,1-1.1,1.4c0-0.1-0.1-0.3-0.1-0.4
		c-0.1-0.6,0.1-1.1,0.4-1.7c0.3-0.5,0.8-0.8,1.2-1.1c0.1,0,0.1-0.1,0.2-0.2c0-0.1,0-0.1,0-0.2c-0.1-0.2-0.2-0.4-0.4-0.5
		c-0.2-0.1-0.5-0.1-0.7-0.1c-0.1,0-0.4,0-0.4,0c0.4-0.4,1.1-0.6,1.6-0.7c0.3,0,0.7,0,1,0c0.4,0,0.7-0.1,1.1-0.2
		c0.7-0.2,1.4-0.7,2-1.2c0.2-0.2,0.3-0.4,0.4-0.6c0-0.2,0-0.4,0-0.6c0-0.4,0-0.8-0.1-1.2s-0.1-0.8-0.2-1.2c-0.2-0.8-0.5-1.5-0.9-2.2
		c-0.2-0.3-0.4-0.6-0.6-0.9c-0.1-0.1-0.2-0.3-0.4-0.4c-0.8-0.8-1.8-1.3-2.8-1.6c-0.7-0.2-1.4-0.3-2-0.6c-0.7-0.3-1.3-0.8-1.8-1.3
		c-0.3-0.3-0.5-0.5-0.7-0.9c-0.1-0.3-0.1-0.6-0.1-0.9c0-1,0-2,0.2-3c0.1-0.5,0.2-1,0.3-1.5c0.1-0.4,0.3-0.8,0.4-1.2
		c0-0.2-0.1-0.4-0.2-0.5c-0.1-0.1-0.3-0.1-0.5-0.1c-0.5-0.1-1.1-0.1-1.6-0.1c-0.4,0-1.1-0.2-1.2,0.3c-0.3,1-0.2,2.1-0.1,3.2
		c0.1,0.9,0.1,1.8,0.2,2.7c0.1,1.4,0.1,2.7,0,4.1c0,0,0,0.1,0,0.1c0,0-0.1,0-0.1,0c-1,0.2-2.1,0.4-3.1,0.8c-2,0.7-4,1.1-6.1,0.9
		c-0.4,0-0.8-0.1-1.1,0c-0.5,0.2-0.8,0.6-1.2,0.9c-0.3,0.3-0.9,0.7-1.3,0.8c0.1-0.1,0.2-0.8,0.2-1c0.1-0.5,0.4-0.9,0.3-1.4
		c0-0.1-0.1-0.3-0.2-0.3c-0.1-0.1-0.2-0.1-0.3-0.1c-1.2-0.3-2.1,0.6-3.1,1c0.4-0.7,0.7-1.3,1.1-2c0.1-0.2,0.2-0.3,0.2-0.5
		c0-0.2-0.1-0.3-0.2-0.4c-0.3-0.4-0.6-0.8-1-1c-0.7-0.4-1.4-0.1-2.2,0c0.5-0.3,1.1-0.6,1.7-0.8c0.3-0.1,0.6-0.2,0.9-0.3
		c0.2-0.1,0.6-0.1,0.8-0.2c0.1-0.1,0.2-0.2,0.2-0.4c0.1-0.3,0.2-0.6,0.2-0.8c0-0.2-0.1-0.5-0.3-0.7c-0.2-0.2-0.5-0.3-0.6-0.5
		c0,0,0.5,0.1,0.6,0.1c0.3,0.1,0.5,0.2,0.8,0.4c0.5,0.3,0.9,0.7,1.3,1.1c0.4,0.3,0.7,0.7,1.2,0.9c0.5,0.3,1.2,0.2,1.7,0
		c0.6-0.2,1.1-0.2,1.7-0.3c0.5,0,1.1-0.2,1.4-0.7c0.1-0.2,0.2-0.5,0.2-0.7c0-0.6-0.2-1.2-0.4-1.8c-0.4-1-0.7-2.1-1.3-3
		c-0.6-0.9-1.2-1.8-1.6-2.8c-0.4-1.1-0.6-2.3-0.3-3.5c0.1-0.5,0.3-0.9,0.7-1.2c0.2-0.2,0.4-0.3,0.6-0.5c1.4-0.9,2.9-1.4,4.5-1.7
		c1.7-0.3,3.4-0.6,5.1-0.5c0.5,0,1,0.1,1.5,0.2c0.6,0.1,1.2,0.3,1.8,0.5c0.3,0.1,1,0.6,1.2,0.1c0.3-0.8,0.3-1.8-0.2-2.5
		c-0.2-0.4-0.6-0.6-0.9-0.9c-0.5-0.4-0.9-0.9-1.3-1.3c-0.7-0.5-1.5-0.8-2.2-1.4c-0.3-0.2-0.5-0.4-0.6-0.7c-0.1-0.2-0.2-0.5-0.2-0.7
		c0-0.2-0.2-0.5-0.2-0.7c-0.1,0.2-0.3,0.4-0.5,0.6c-0.3,0.2-0.7,0.3-1.1,0.5c-0.8,0.4-1.6,0.7-2.3,1c-1.6,0.7-3.2,1.2-4.8,1.7
		c-3.2,1-6.6,1.6-10,1.7c-0.8,0-1.7-0.3-2.5,0c-0.9,0.4-1,1.4-1.2,2.2c-0.3-0.4-0.4-1-0.5-1.5c-0.1-0.5,0-1.2-0.4-1.6
		c-0.1-0.1-0.2-0.1-0.4-0.1c-0.4,0-0.8,0-1.1,0.3c-0.2,0.2-0.9,0.9-1,1.1c-0.2-1,0.5-2,0.6-3c0-0.1,0-0.2,0-0.3
		c0-0.1-0.1-0.2-0.2-0.2c-0.3-0.2-0.6-0.2-0.9-0.2c-0.3,0.1-0.7,0.2-0.9,0.3c-0.2,0.1,0.2-0.4,0.2-0.4c0.1-0.1,0.2-0.3,0.4-0.4
		c0.3-0.2,0.6-0.4,0.9-0.5c0.8-0.4,2-0.8,2-1.9c0-0.4-0.2-0.8-0.4-1.1c-0.1-0.2-0.5-0.7-0.8-0.8c0.5,0.1,1.1,0.2,1.5,0.5
		c0.3,0.3,0.4,0.7,0.7,1c0.5,0.6,1.2,0.6,1.9,0.6c0.8,0.1,1.6,0.2,2.5,0.1c0.4-0.1,0.9-0.3,1.3-0.5c0.4-0.2,0.8-0.3,1.2-0.5
		c0.9-0.4,1.8-1,2.6-1.5c0.3-0.2,0.5-0.4,0.8-0.5c0.3-0.1,0.6-0.2,0.8-0.3c1-0.3,2-0.4,3.1-0.5c0.1,0,0.1,0,0.2,0
		c0,0,0.1-0.1,0.1-0.1c0.6-0.5,0.9-1,1.2-1.7c-0.2,0.4-1.4,0.1-1.7,0c-1-0.2-1.9-0.7-2.8-1.1c-2-1.1-3.9-2.6-5-4.6
		c-0.2-0.4-0.4-0.8-0.6-1.1c-0.3-0.6-0.6-1.1-0.9-1.7c-0.2-0.5-0.3-1.1-0.4-1.7c-0.2-0.6-0.4-1.2-0.7-1.7c-0.1-0.3-0.3-0.5-0.5-0.7
		c-0.8-0.8-2-1.7-3.1-1.7c0.4-0.1,0.7-0.2,1.1-0.3c0.7-0.2,1.3-0.4,1.9-0.8c0.3-0.2,0.4-0.7,0.4-1.1c0-0.2-0.1-0.3-0.2-0.5
		c-0.2-0.4-0.5-0.7-0.7-1.1c-0.1-0.1-0.2-0.3-0.4-0.4c-0.1-0.1-0.3-0.5-0.4-0.5c0.2,0.1,0.5,0.2,0.7,0.3c0.6,0.2,1.1,0.4,1.6,0.7
		c0.4,0.2,1.3,0.6,1.7,0.2c0.1-0.1,0.1-0.3,0.1-0.5c0-0.8,0.1-1.7,0-2.5c0-0.3,0.2,0,0.3,0.2c0.4,0.5,0.6,1.2,0.9,1.8
		c0.4,0.8,1,1.4,1.9,1.1c0.7-0.2,1.1-1,1.3-1.6c0,0,0,1.2,0,1.2c-0.1,0.5-0.4,0.8-0.6,1.2c-0.4,0.5-0.6,1.2-0.5,1.9
		c0.2,1.7,1.1,3.1,1.9,4.5c0.4,0.7,0.8,1.4,1.4,2c0.4,0.4,0.9,0.8,1.3,1.2c0.3,0.4,0.6,1,1,1.3c0.7,0.6,2.2,0.6,2.9,0
		c0.2-0.2,0.3-0.4,0.4-0.6c0.5-0.8,1-1.5,1.3-2.3c0.4-0.9,0.6-1.8,1-2.7c0.2-0.5,0.4-1.1,0.6-1.6c0.1-0.2,0.2-0.4,0.3-0.7
		c0.5-1,1.4-1.6,2.4-2.1c0.6-0.4,1.2-0.5,1.8-0.8c-0.6-0.3-1.2,0-1.8,0c-0.4,0-0.8-0.1-1.1-0.4c-0.2-0.2-0.4-0.4-0.5-0.7
		c-0.2-0.3-0.3-0.6-0.3-0.9c0-0.3,0-0.5,0-0.8c0-0.3,0-0.7-0.2-0.9c-0.1-0.3-0.4-0.5-0.5-0.8c0-0.1,0-0.3-0.1-0.4
		c-0.1-0.2-0.4-0.3-0.6-0.3c-0.6-0.1-1.1-0.2-1.7,0c-0.3,0.1-0.7,0.2-1,0c-0.1-0.1-0.2-0.2-0.3-0.3c-0.4-0.6-0.9-1.3-1.4-1.8
		c-0.1-0.1-0.3-0.3-0.4-0.4c-0.3-0.4-0.4-0.9-0.5-1.4c0.1,0.2,0.3,0.3,0.4,0.4c0.2,0.1,0.4,0.4,0.5,0.6c0.2,0.3,0.3,0.5,0.5,0.8
		c0.2,0.4,0.6,0.6,0.9,0.9c0.5,0.3,1,0.5,1.6,0.6c0.5,0.1,1.1,0,1.6,0c0.9,0.1,1.7,0.6,2.2,1.3c0.5,0.7,0.9,1.2,1.9,1.1
		c0.7-0.1,1.3-0.6,1.8-1.1c0.4-0.3,0.7-0.7,0.8-1.2c0.2-0.6-0.1-1.2-0.5-1.7c-0.4-0.4-1-0.7-1.6-0.8c-0.5-0.1-1-0.2-1.5-0.1
		C131.8,324.9,131.6,325,131.4,325.2z"/>
	<path fill="#BB5064" d="M88.1,202.1c-0.1,0.1-0.2,0.2-0.3,0.4c-0.1,0.2-0.3,0.3-0.5,0.4c-0.1,0.1-0.2,0.1-0.3,0.1
		c-0.4,0-0.4-0.6-0.4-0.9c0-0.4-0.1-0.7-0.3-1c-0.3-0.4-0.4-0.2-0.2-0.6c0.3-0.6,1.1-1.3,1.7-1.4c0.3-0.1,0.7-0.1,1-0.2
		c0.4-0.1,0.7-0.2,1-0.2c0.6-0.1,1.2,0,1.8,0c0.1,0,0.2,0,0.3,0c0.2-0.1,0.3-0.4,0.4-0.6c0.1-0.2,0.4-0.3,0.6-0.3
		c0.6-0.3,1.2-0.6,1.7-1c0.5-0.4,0.9-0.4,1.5-0.4c0.7,0.1,1.4,0.2,2.1,0.3c0.5,0.1,1.1,0.2,1.6,0.3c0.6,0.2,1.1,0.6,1.6,0.9
		c1.1,0.6,2.4,1.2,3.6,1.2c0.3,0,0.5,0.3,0.5,0.3s0,0.8,0,1c-0.1,0.3-0.2,0.7-0.3,1c-0.2,0.4-0.5,0.7-0.8,0.9
		c-0.9,0.7-1.8,1.6-2.5,2.5c-0.1,0.1-0.1,0.1-0.1,0.2c0,0.1,0,0.1,0,0.2c0.2,0.8,0.4,1.6,0.3,2.5c-0.1,0.5,0,1.3-0.3,1.7
		c-0.1,0.1-0.8,1.2-0.8,1.4c0,0.8-0.2,1.7-0.4,2.5c-0.1,0.4-0.8,1.6-0.4,2c0.3,0.3,0.4,0.9,0.4,1c0,0.1-0.4,0.7-0.4,1
		c-0.1,0.8-0.3,1.8,0,2.6c0.1,0.3,0.3,0.6,0.4,0.9c0.3,0.7,0.3,1.6,0.5,2.4c0.1,0.9,0.2,1.8,0.3,2.7c0,0.5,0,1,0.1,1.4
		c0.1,0.6,0.2,1.1,0.4,1.6c0.5,1.5,1,3,1.5,4.6c0.4,1.6,0.7,3.3,1.4,4.9c1.3,3,3.1,5.6,5.5,7.9c0.4,0.4,0.8,0.8,1.3,1
		c0.4,0.2,0.8,0.2,1.2,0.3c0.5,0.1,1,0.2,1.6,0.1c0.5,0,1-0.2,1.5-0.5c0.5-0.3,1-0.6,1.4-1.1c0.4-0.6,0.6-1.3,0.6-2
		c0-0.7-0.1-1.4-0.3-2.1c-0.1-0.4-0.3-0.8-0.5-1.1c-0.2-0.2-0.3-0.4-0.5-0.6c-0.2-0.2-0.4-0.4-0.6-0.5c-0.3-0.1-0.6-0.1-0.9-0.2
		c-0.3,0-0.6,0-0.8,0.1c-0.6,0.2-0.6,1.1-0.6,1.7c0,0.1,0,0.2,0,0.3c-0.1,0.3-0.5,0.4-0.8,0.4c-0.3-0.1-0.6-0.3-0.8-0.6
		c-0.4-0.5-0.8-1.2-1-1.9c-0.1-0.3-0.1-0.5-0.3-0.7c-0.1-0.2-0.3-0.4-0.4-0.5c-0.5-0.5-1-0.9-1.6-1.2c-0.2-0.1-0.4-0.2-0.5-0.4
		c-0.1-0.1,0-0.3,0-0.4c0-0.5,0.1-1,0-1.6c0-0.6-0.1-1.3-0.1-1.9c-0.1-0.7-0.1-1.5-0.2-2.2c-0.1-0.5-0.2-1.1-0.4-1.6
		c-0.2-0.4-0.5-0.7-0.8-1c-0.1-0.1-0.7-0.7-0.6-0.9c0-0.1,1.1,0.5,1.2,0.6c0.6,0.4,1,1,1.3,1.7c0.2,0.5,0.5,1,0.7,1.6
		c0.1,0.3,0.2,0.5,0.4,0.8c0.2,0.3,0.5,0.3,0.8,0.6c-0.1-0.8-0.1-1.6-0.1-2.3c0.1-1.3,0.1-2.5,0.7-3.7c1-2,2.9-3.1,4.6-4.3
		c0.5-0.3,0.9-0.7,1.2-1.2c0.3-0.5,0.3-1.1,0.1-1.7c-0.2-0.5-0.5-1-0.9-1.4c-0.2-0.2-0.3-0.3-0.5-0.4c-0.2-0.1-0.4-0.1-0.5-0.1
		c-1.1-0.1-2.1,0.1-3.2,0.4c0,0,0.3-0.5,0.4-0.6c0.2-0.2,0.5-0.4,0.8-0.6c0.6-0.3,1.2-0.6,1.9-0.6c0.7-0.1,1.5-0.1,2.3,0.1
		c0.3,0.1,0.8,0.1,1.1,0.2c0.1,0,0.7,0.5,0.8,0.5c0.3-0.4,0.3-1.1,0.3-1.6c0-0.4,0-0.8-0.1-1.1c0-0.1-0.4-0.9-0.5-0.9
		c0.8,0.2,1.3,0.8,1.9,1.4c1.1,1.2,1.9,2.7,1.1,4.6c-0.3,0.7-0.8,1.3-1.3,2c-0.1,0.1-0.1,0.2-0.1,0.3c0,0.1,0.1,0.1,0.1,0.2
		c0.5,0.5,1.7,0.5,2.2,0.1c0.2-0.2,0.4-0.5,0.5-0.8c0.3-0.7,0.6-1.5,0.5-2.3c0-0.7-0.2-1.3-0.1-2c0.1-0.8,0.6-1.6,1.2-2.1
		c0.8-0.6,1.9-0.4,2.8-0.2c-0.6-0.1-1.5,0.7-1.9,1.1c-0.5,0.6-0.7,1.4-0.6,2.1c0.1,0.9,0.3,1.8,0.5,2.7c0.1,0.7,0.1,1.3-0.1,2
		c-0.1,0.3-0.2,0.7-0.4,1c-0.3,0.3-0.6,0.4-0.8,0.7c-0.3,0.4-0.1,0.9,0.1,1.4c0.3,0.6,0.4,1.2,0.1,1.8c-0.2,0.6-0.7,1.1-1.2,1.4
		c-1,0.5-2.1,0.5-3.2,0.2c0.6,0.1,1.3-0.2,1.7-0.6c0.2-0.2,0.4-0.4,0.4-0.7c0.2-1.1-0.9-2.3-1.7-2.8c-1.9-1.3-4.5-0.6-6.1,0.9
		c-1.3,1.2-1.9,3.1-1.8,4.9c0.1,0.8,0.2,1.9,0.6,2.6c0.7,1.2,1.7,2.2,2.7,3.3c1,1.2,2,2.3,3.1,3.5c0.9,1,1.8,2.1,2.2,3.5
		c0.7,2.5,0,5.4-1.9,7.2c-0.8,0.8-1.8,1.4-2.9,1.9c-1.7,0.8-3.5,1.3-5.4,1.1c-1.5-0.1-2.9-0.6-4.1-1.4c-0.3-0.2-2.8-1.7-2.5-2.2
		c-0.4,0.8-0.8,1.6-1.3,2.3c-0.6,0.7-1.2,1.2-1.6,2c-0.4,0.7-0.6,1.6-0.3,2.4c0.1,0.3,0.3,0.5,0.4,0.8c0.4,0.6,0.9,1.3,1.5,1.8
		c0.5,0.4,1.1,0.5,1.5,0.8c0.7,0.5,0.3,1.1,0.5,1.8c0.2,0.7,0.7,1.2,0.7,1.9c0,0.2-0.1,0.5-0.1,0.7c0,0.3,0.2,0.5,0.4,0.7
		c0.6,0.6,1.3,0.9,2.1,1.1c0.2,0-0.3,2-0.3,2.2c-0.4,2.4-2.1,4.1-4,5.5c-0.8,0.6-1.7,1.2-2.5,1.9c-0.7,0.5-1.8,1.3-2.1,2.2
		c0,0.1-0.4,1-0.4,1c-0.4-0.6-0.3-1,0-1.6c0.1-0.3,0.2-0.7,0-0.9c-0.2-0.2-0.5-0.3-0.7-0.3c-0.3,0-0.6,0-0.9,0.1
		c-0.8,0.3-1,1.2-1.3,1.8c0.1-0.1-0.2-0.6-0.2-0.7c-0.1-0.4,0-0.8,0.1-1.1c0.1-0.2,0.1-0.4,0.1-0.6c0-0.2-0.1-0.3-0.1-0.5
		c0-0.1-0.1-0.2-0.1-0.2c-0.1-0.1-0.2-0.1-0.3-0.2c-0.2-0.1-0.3-0.1-0.5-0.1c-0.5,0-0.9,1-1.1,1.4c0-0.1-0.1-0.3-0.1-0.4
		c-0.1-0.6,0.1-1.1,0.4-1.7c0.3-0.5,0.8-0.8,1.2-1.1c0.1,0,0.1-0.1,0.2-0.2c0-0.1,0-0.1,0-0.2c-0.1-0.2-0.2-0.4-0.4-0.5
		c-0.2-0.1-0.5-0.1-0.7-0.1c-0.1,0-0.4,0-0.4,0c0.4-0.4,1.1-0.6,1.6-0.7c0.3,0,0.7,0,1,0c0.4,0,0.7-0.1,1.1-0.2
		c0.7-0.2,1.4-0.7,2-1.2c0.2-0.2,0.3-0.4,0.4-0.6c0-0.2,0-0.4,0-0.6c0-0.4,0-0.8-0.1-1.2c0-0.4-0.1-0.8-0.2-1.2
		c-0.2-0.8-0.5-1.5-0.9-2.2c-0.2-0.3-0.4-0.6-0.6-0.9c-0.1-0.1-0.2-0.3-0.4-0.4c-0.8-0.8-1.8-1.3-2.8-1.6c-0.7-0.2-1.4-0.3-2-0.6
		c-0.7-0.3-1.3-0.8-1.8-1.3c-0.3-0.3-0.5-0.5-0.7-0.9c-0.1-0.3-0.1-0.6-0.1-0.9c0-1,0-2,0.2-3c0.1-0.5,0.2-1,0.3-1.5
		c0.1-0.4,0.3-0.8,0.4-1.2c0-0.2-0.1-0.4-0.2-0.5c-0.1-0.1-0.3-0.1-0.5-0.1c-0.5-0.1-1.1-0.1-1.6-0.1c-0.4,0-1.1-0.2-1.2,0.3
		c-0.3,1-0.2,2.1-0.1,3.2c0.1,0.9,0.1,1.8,0.2,2.7c0.1,1.4,0.1,2.7,0,4.1c0,0,0,0.1,0,0.1c0,0-0.1,0-0.1,0c-1,0.2-2.1,0.4-3.1,0.8
		c-2,0.7-4,1.1-6.1,0.9c-0.4,0-0.8-0.1-1.1,0c-0.5,0.2-0.8,0.6-1.2,0.9c-0.3,0.3-0.9,0.7-1.3,0.8c0.1-0.1,0.2-0.8,0.2-1
		c0.1-0.5,0.4-0.9,0.3-1.4c0-0.1-0.1-0.3-0.2-0.3c-0.1-0.1-0.2-0.1-0.3-0.1c-1.2-0.3-2.1,0.6-3.1,1c0.4-0.7,0.7-1.3,1.1-2
		c0.1-0.2,0.2-0.3,0.2-0.5c0-0.2-0.1-0.3-0.2-0.4c-0.3-0.4-0.6-0.8-1-1c-0.7-0.4-1.4-0.1-2.2,0c0.5-0.3,1.1-0.6,1.7-0.8
		c0.3-0.1,0.6-0.2,0.9-0.3c0.2-0.1,0.6-0.1,0.8-0.2c0.1-0.1,0.2-0.2,0.2-0.4c0.1-0.3,0.2-0.6,0.2-0.8c0-0.2-0.1-0.5-0.3-0.7
		c-0.2-0.2-0.5-0.3-0.6-0.5c0,0,0.5,0.1,0.6,0.1c0.3,0.1,0.5,0.2,0.8,0.4c0.5,0.3,0.9,0.7,1.3,1.1c0.4,0.3,0.7,0.7,1.2,0.9
		c0.5,0.3,1.2,0.2,1.7,0c0.6-0.2,1.1-0.2,1.7-0.3c0.5,0,1.1-0.2,1.4-0.7c0.1-0.2,0.2-0.5,0.2-0.7c0-0.6-0.2-1.2-0.4-1.8
		c-0.4-1-0.7-2.1-1.3-3c-0.6-0.9-1.2-1.8-1.6-2.8c-0.4-1.1-0.6-2.3-0.3-3.5c0.1-0.5,0.3-0.9,0.7-1.2c0.2-0.2,0.4-0.3,0.6-0.5
		c1.4-0.9,2.9-1.4,4.5-1.7c1.7-0.3,3.4-0.6,5.1-0.5c0.5,0,1,0.1,1.5,0.2c0.6,0.1,1.2,0.3,1.8,0.5c0.3,0.1,1,0.6,1.2,0.1
		c0.3-0.8,0.3-1.8-0.2-2.5c-0.2-0.4-0.6-0.6-0.9-0.9c-0.5-0.4-0.9-0.9-1.3-1.3c-0.7-0.5-1.5-0.8-2.2-1.4c-0.3-0.2-0.5-0.4-0.6-0.7
		c-0.1-0.2-0.2-0.5-0.2-0.7c0-0.2-0.2-0.5-0.2-0.7c-0.1,0.2-0.3,0.4-0.5,0.6c-0.3,0.2-0.7,0.3-1.1,0.5c-0.8,0.4-1.6,0.7-2.3,1
		c-1.6,0.7-3.2,1.2-4.8,1.7c-3.2,1-6.6,1.6-10,1.7c-0.8,0-1.7-0.3-2.5,0c-0.9,0.4-1,1.4-1.2,2.2c-0.3-0.4-0.4-1-0.5-1.5
		c-0.1-0.5,0-1.2-0.4-1.6c-0.1-0.1-0.2-0.1-0.4-0.1c-0.4,0-0.8,0-1.1,0.3c-0.2,0.2-0.9,0.9-1,1.1c-0.2-1,0.5-2,0.6-3
		c0-0.1,0-0.2,0-0.3c0-0.1-0.1-0.2-0.2-0.2c-0.3-0.2-0.6-0.2-0.9-0.2c-0.3,0.1-0.7,0.2-0.9,0.3c-0.2,0.1,0.2-0.4,0.2-0.4
		c0.1-0.1,0.2-0.3,0.4-0.4c0.3-0.2,0.6-0.4,0.9-0.5c0.8-0.4,2-0.8,2-1.9c0-0.4-0.2-0.8-0.4-1.1c-0.1-0.2-0.5-0.7-0.8-0.8
		c0.5,0.1,1.1,0.2,1.5,0.5c0.3,0.3,0.4,0.7,0.7,1c0.5,0.6,1.2,0.6,1.9,0.6c0.8,0.1,1.6,0.2,2.5,0.1c0.4-0.1,0.9-0.3,1.3-0.5
		c0.4-0.2,0.8-0.3,1.2-0.5c0.9-0.4,1.8-1,2.6-1.5c0.3-0.2,0.5-0.4,0.8-0.5c0.3-0.1,0.6-0.2,0.8-0.3c1-0.3,2-0.4,3.1-0.5
		c0.1,0,0.1,0,0.2,0c0,0,0.1-0.1,0.1-0.1c0.6-0.5,0.9-1,1.2-1.7c-0.2,0.4-1.4,0.1-1.7,0c-1-0.2-1.9-0.7-2.8-1.1
		c-2-1.1-3.9-2.6-5-4.6c-0.2-0.4-0.4-0.8-0.6-1.1c-0.3-0.6-0.6-1.1-0.9-1.7c-0.2-0.5-0.3-1.1-0.4-1.7c-0.2-0.6-0.4-1.2-0.7-1.7
		c-0.1-0.3-0.3-0.5-0.5-0.7c-0.8-0.8-2-1.7-3.1-1.7c0.4-0.1,0.7-0.2,1.1-0.3c0.7-0.2,1.3-0.4,1.9-0.8c0.3-0.2,0.4-0.7,0.4-1.1
		c0-0.2-0.1-0.3-0.2-0.5c-0.2-0.4-0.5-0.7-0.7-1.1c-0.1-0.1-0.2-0.3-0.4-0.4c-0.1-0.1-0.3-0.5-0.4-0.5c0.2,0.1,0.5,0.2,0.7,0.3
		c0.6,0.2,1.1,0.4,1.6,0.7c0.4,0.2,1.3,0.6,1.7,0.2c0.1-0.1,0.1-0.3,0.1-0.5c0-0.8,0.1-1.7,0-2.5c0-0.3,0.2,0,0.3,0.2
		c0.4,0.5,0.6,1.2,0.9,1.8c0.4,0.8,1,1.4,1.9,1.1c0.7-0.2,1.1-1,1.3-1.6c0,0,0,1.2,0,1.2c-0.1,0.5-0.4,0.8-0.6,1.2
		c-0.4,0.5-0.6,1.2-0.5,1.9c0.2,1.7,1.1,3.1,1.9,4.5c0.4,0.7,0.8,1.4,1.4,2c0.4,0.4,0.9,0.8,1.3,1.2c0.3,0.4,0.6,1,1,1.3
		c0.7,0.6,2.2,0.6,2.9,0c0.2-0.2,0.3-0.4,0.4-0.6c0.5-0.8,1-1.5,1.3-2.3c0.4-0.9,0.6-1.8,1-2.7c0.2-0.5,0.4-1.1,0.6-1.6
		c0.1-0.2,0.2-0.4,0.3-0.7c0.5-1,1.4-1.6,2.4-2.1c0.6-0.4,1.2-0.5,1.8-0.8c-0.6-0.3-1.2,0-1.8,0c-0.4,0-0.8-0.1-1.1-0.4
		c-0.2-0.2-0.4-0.4-0.5-0.7c-0.2-0.3-0.3-0.6-0.3-0.9c0-0.3,0-0.5,0-0.8c0-0.3,0-0.7-0.2-0.9c-0.1-0.3-0.4-0.5-0.5-0.8
		c0-0.1,0-0.3-0.1-0.4c-0.1-0.2-0.4-0.3-0.6-0.3c-0.6-0.1-1.1-0.2-1.7,0c-0.3,0.1-0.7,0.2-1,0c-0.1-0.1-0.2-0.2-0.3-0.3
		c-0.4-0.6-0.9-1.3-1.4-1.8c-0.1-0.1-0.3-0.3-0.4-0.4c-0.3-0.4-0.4-0.9-0.5-1.4c0.1,0.2,0.3,0.3,0.4,0.4c0.2,0.1,0.4,0.4,0.5,0.6
		c0.2,0.3,0.3,0.5,0.5,0.8c0.2,0.4,0.6,0.6,0.9,0.9c0.5,0.3,1,0.5,1.6,0.6c0.5,0.1,1.1,0,1.6,0c0.9,0.1,1.7,0.6,2.2,1.3
		c0.5,0.7,0.9,1.2,1.9,1.1c0.7-0.1,1.3-0.6,1.8-1.1c0.4-0.3,0.7-0.7,0.8-1.2c0.2-0.6-0.1-1.2-0.5-1.7c-0.4-0.4-1-0.7-1.6-0.8
		c-0.5-0.1-1-0.2-1.5-0.1C88.5,201.8,88.3,201.9,88.1,202.1z"/>
	<path fill="#BB5064" d="M174.8,202.1c-0.1,0.1-0.2,0.2-0.3,0.4c-0.1,0.2-0.3,0.3-0.5,0.4c-0.1,0.1-0.2,0.1-0.3,0.1
		c-0.4,0-0.4-0.6-0.4-0.9c0-0.4-0.1-0.7-0.3-1c-0.3-0.4-0.4-0.2-0.2-0.6c0.3-0.6,1.1-1.3,1.7-1.4c0.3-0.1,0.7-0.1,1-0.2
		c0.4-0.1,0.7-0.2,1-0.2c0.6-0.1,1.2,0,1.8,0c0.1,0,0.2,0,0.3,0c0.2-0.1,0.3-0.4,0.4-0.6c0.1-0.2,0.4-0.3,0.6-0.3
		c0.6-0.3,1.2-0.6,1.7-1c0.5-0.4,0.9-0.4,1.5-0.4c0.7,0.1,1.4,0.2,2.1,0.3c0.5,0.1,1.1,0.2,1.6,0.3c0.6,0.2,1.1,0.6,1.6,0.9
		c1.1,0.6,2.4,1.2,3.6,1.2c0.3,0,0.5,0.3,0.5,0.3s0,0.8,0,1c-0.1,0.3-0.2,0.7-0.3,1c-0.2,0.4-0.5,0.7-0.8,0.9
		c-0.9,0.7-1.8,1.6-2.5,2.5c-0.1,0.1-0.1,0.1-0.1,0.2c0,0.1,0,0.1,0,0.2c0.2,0.8,0.4,1.6,0.3,2.5c-0.1,0.5,0,1.3-0.3,1.7
		c-0.1,0.1-0.8,1.2-0.8,1.4c0,0.8-0.2,1.7-0.4,2.5c-0.1,0.4-0.8,1.6-0.4,2c0.3,0.3,0.4,0.9,0.4,1c0,0.1-0.4,0.7-0.4,1
		c-0.1,0.8-0.3,1.8,0,2.6c0.1,0.3,0.3,0.6,0.4,0.9c0.3,0.7,0.3,1.6,0.5,2.4c0.1,0.9,0.2,1.8,0.3,2.7c0,0.5,0,1,0.1,1.4
		c0.1,0.6,0.2,1.1,0.4,1.6c0.5,1.5,1,3,1.5,4.6c0.4,1.6,0.7,3.3,1.4,4.9c1.3,3,3.1,5.6,5.5,7.9c0.4,0.4,0.8,0.8,1.3,1
		c0.4,0.2,0.8,0.2,1.2,0.3c0.5,0.1,1,0.2,1.6,0.1c0.5,0,1-0.2,1.5-0.5c0.5-0.3,1-0.6,1.4-1.1c0.4-0.6,0.6-1.3,0.6-2
		c0-0.7-0.1-1.4-0.3-2.1c-0.1-0.4-0.3-0.8-0.5-1.1c-0.2-0.2-0.3-0.4-0.5-0.6c-0.2-0.2-0.4-0.4-0.6-0.5c-0.3-0.1-0.6-0.1-0.9-0.2
		c-0.3,0-0.6,0-0.8,0.1c-0.6,0.2-0.6,1.1-0.6,1.7c0,0.1,0,0.2,0,0.3c-0.1,0.3-0.5,0.4-0.8,0.4c-0.3-0.1-0.6-0.3-0.8-0.6
		c-0.4-0.5-0.8-1.2-1-1.9c-0.1-0.3-0.1-0.5-0.3-0.7c-0.1-0.2-0.3-0.4-0.4-0.5c-0.5-0.5-1-0.9-1.6-1.2c-0.2-0.1-0.4-0.2-0.5-0.4
		c-0.1-0.1,0-0.3,0-0.4c0-0.5,0.1-1,0-1.6c0-0.6-0.1-1.3-0.1-1.9c-0.1-0.7-0.1-1.5-0.2-2.2c-0.1-0.5-0.2-1.1-0.4-1.6
		c-0.2-0.4-0.5-0.7-0.8-1c-0.1-0.1-0.7-0.7-0.6-0.9c0-0.1,1.1,0.5,1.2,0.6c0.6,0.4,1,1,1.3,1.7c0.2,0.5,0.5,1,0.7,1.6
		c0.1,0.3,0.2,0.5,0.4,0.8c0.2,0.3,0.5,0.3,0.8,0.6c-0.1-0.8-0.1-1.6-0.1-2.3c0.1-1.3,0.1-2.5,0.7-3.7c1-2,2.9-3.1,4.6-4.3
		c0.5-0.3,0.9-0.7,1.2-1.2c0.3-0.5,0.3-1.1,0.1-1.7c-0.2-0.5-0.5-1-0.9-1.4c-0.2-0.2-0.3-0.3-0.5-0.4c-0.2-0.1-0.4-0.1-0.5-0.1
		c-1.1-0.1-2.1,0.1-3.2,0.4c0,0,0.3-0.5,0.4-0.6c0.2-0.2,0.5-0.4,0.8-0.6c0.6-0.3,1.2-0.6,1.9-0.6c0.7-0.1,1.5-0.1,2.3,0.1
		c0.3,0.1,0.8,0.1,1.1,0.2c0.1,0,0.7,0.5,0.8,0.5c0.3-0.4,0.3-1.1,0.3-1.6c0-0.4,0-0.8-0.1-1.1c0-0.1-0.4-0.9-0.5-0.9
		c0.8,0.2,1.3,0.8,1.9,1.4c1.1,1.2,1.9,2.7,1.1,4.6c-0.3,0.7-0.8,1.3-1.3,2c-0.1,0.1-0.1,0.2-0.1,0.3c0,0.1,0.1,0.1,0.1,0.2
		c0.5,0.5,1.7,0.5,2.2,0.1c0.2-0.2,0.4-0.5,0.5-0.8c0.3-0.7,0.6-1.5,0.5-2.3c0-0.7-0.2-1.3-0.1-2c0.1-0.8,0.6-1.6,1.2-2.1
		c0.8-0.6,1.9-0.4,2.8-0.2c-0.6-0.1-1.5,0.7-1.9,1.1c-0.5,0.6-0.7,1.4-0.6,2.1c0.1,0.9,0.3,1.8,0.5,2.7c0.1,0.7,0.1,1.3-0.1,2
		c-0.1,0.3-0.2,0.7-0.4,1c-0.3,0.3-0.6,0.4-0.8,0.7c-0.3,0.4-0.1,0.9,0.1,1.4c0.3,0.6,0.4,1.2,0.1,1.8c-0.2,0.6-0.7,1.1-1.2,1.4
		c-1,0.5-2.1,0.5-3.2,0.2c0.6,0.1,1.3-0.2,1.7-0.6c0.2-0.2,0.4-0.4,0.4-0.7c0.2-1.1-0.9-2.3-1.7-2.8c-1.9-1.3-4.5-0.6-6.1,0.9
		c-1.3,1.2-1.9,3.1-1.8,4.9c0.1,0.8,0.2,1.9,0.6,2.6c0.7,1.2,1.7,2.2,2.7,3.3c1,1.2,2,2.3,3.1,3.5c0.9,1,1.8,2.1,2.2,3.5
		c0.7,2.5,0,5.4-1.9,7.2c-0.8,0.8-1.8,1.4-2.9,1.9c-1.7,0.8-3.5,1.3-5.4,1.1c-1.5-0.1-2.9-0.6-4.1-1.4c-0.3-0.2-2.8-1.7-2.5-2.2
		c-0.4,0.8-0.8,1.6-1.3,2.3c-0.6,0.7-1.2,1.2-1.6,2c-0.4,0.7-0.6,1.6-0.3,2.4c0.1,0.3,0.3,0.5,0.4,0.8c0.4,0.6,0.9,1.3,1.5,1.8
		c0.5,0.4,1.1,0.5,1.5,0.8c0.7,0.5,0.3,1.1,0.5,1.8c0.2,0.7,0.7,1.2,0.7,1.9c0,0.2-0.1,0.5-0.1,0.7c0,0.3,0.2,0.5,0.4,0.7
		c0.6,0.6,1.3,0.9,2.1,1.1c0.2,0-0.3,2-0.3,2.2c-0.4,2.4-2.1,4.1-4,5.5c-0.8,0.6-1.7,1.2-2.5,1.9c-0.7,0.5-1.8,1.3-2.1,2.2
		c0,0.1-0.4,1-0.4,1c-0.4-0.6-0.3-1,0-1.6c0.1-0.3,0.2-0.7,0-0.9c-0.2-0.2-0.5-0.3-0.7-0.3c-0.3,0-0.6,0-0.9,0.1
		c-0.8,0.3-1,1.2-1.3,1.8c0.1-0.1-0.2-0.6-0.2-0.7c-0.1-0.4,0-0.8,0.1-1.1c0.1-0.2,0.1-0.4,0.1-0.6c0-0.2-0.1-0.3-0.1-0.5
		c0-0.1-0.1-0.2-0.1-0.2c-0.1-0.1-0.2-0.1-0.3-0.2c-0.2-0.1-0.3-0.1-0.5-0.1c-0.5,0-0.9,1-1.1,1.4c0-0.1-0.1-0.3-0.1-0.4
		c-0.1-0.6,0.1-1.1,0.4-1.7c0.3-0.5,0.8-0.8,1.2-1.1c0.1,0,0.1-0.1,0.2-0.2c0-0.1,0-0.1,0-0.2c-0.1-0.2-0.2-0.4-0.4-0.5
		c-0.2-0.1-0.5-0.1-0.7-0.1c-0.1,0-0.4,0-0.4,0c0.4-0.4,1.1-0.6,1.6-0.7c0.3,0,0.7,0,1,0c0.4,0,0.7-0.1,1.1-0.2
		c0.7-0.2,1.4-0.7,2-1.2c0.2-0.2,0.3-0.4,0.4-0.6c0-0.2,0-0.4,0-0.6c0-0.4,0-0.8-0.1-1.2c0-0.4-0.1-0.8-0.2-1.2
		c-0.2-0.8-0.5-1.5-0.9-2.2c-0.2-0.3-0.4-0.6-0.6-0.9c-0.1-0.1-0.2-0.3-0.4-0.4c-0.8-0.8-1.8-1.3-2.8-1.6c-0.7-0.2-1.4-0.3-2-0.6
		c-0.7-0.3-1.3-0.8-1.8-1.3c-0.3-0.3-0.5-0.5-0.7-0.9c-0.1-0.3-0.1-0.6-0.1-0.9c0-1,0-2,0.2-3c0.1-0.5,0.2-1,0.3-1.5
		c0.1-0.4,0.3-0.8,0.4-1.2c0-0.2-0.1-0.4-0.2-0.5c-0.1-0.1-0.3-0.1-0.5-0.1c-0.5-0.1-1.1-0.1-1.6-0.1c-0.4,0-1.1-0.2-1.2,0.3
		c-0.3,1-0.2,2.1-0.1,3.2c0.1,0.9,0.1,1.8,0.2,2.7c0.1,1.4,0.1,2.7,0,4.1c0,0,0,0.1,0,0.1c0,0-0.1,0-0.1,0c-1,0.2-2.1,0.4-3.1,0.8
		c-2,0.7-4,1.1-6.1,0.9c-0.4,0-0.8-0.1-1.1,0c-0.5,0.2-0.8,0.6-1.2,0.9c-0.3,0.3-0.9,0.7-1.3,0.8c0.1-0.1,0.2-0.8,0.2-1
		c0.1-0.5,0.4-0.9,0.3-1.4c0-0.1-0.1-0.3-0.2-0.3c-0.1-0.1-0.2-0.1-0.3-0.1c-1.2-0.3-2.1,0.6-3.1,1c0.4-0.7,0.7-1.3,1.1-2
		c0.1-0.2,0.2-0.3,0.2-0.5c0-0.2-0.1-0.3-0.2-0.4c-0.3-0.4-0.6-0.8-1-1c-0.7-0.4-1.4-0.1-2.2,0c0.5-0.3,1.1-0.6,1.7-0.8
		c0.3-0.1,0.6-0.2,0.9-0.3c0.2-0.1,0.6-0.1,0.8-0.2c0.1-0.1,0.2-0.2,0.2-0.4c0.1-0.3,0.2-0.6,0.2-0.8c0-0.2-0.1-0.5-0.3-0.7
		c-0.2-0.2-0.5-0.3-0.6-0.5c0,0,0.5,0.1,0.6,0.1c0.3,0.1,0.5,0.2,0.8,0.4c0.5,0.3,0.9,0.7,1.3,1.1c0.4,0.3,0.7,0.7,1.2,0.9
		c0.5,0.3,1.2,0.2,1.7,0c0.6-0.2,1.1-0.2,1.7-0.3c0.5,0,1.1-0.2,1.4-0.7c0.1-0.2,0.2-0.5,0.2-0.7c0-0.6-0.2-1.2-0.4-1.8
		c-0.4-1-0.7-2.1-1.3-3c-0.6-0.9-1.2-1.8-1.6-2.8c-0.4-1.1-0.6-2.3-0.3-3.5c0.1-0.5,0.3-0.9,0.7-1.2c0.2-0.2,0.4-0.3,0.6-0.5
		c1.4-0.9,2.9-1.4,4.5-1.7c1.7-0.3,3.4-0.6,5.1-0.5c0.5,0,1,0.1,1.5,0.2c0.6,0.1,1.2,0.3,1.8,0.5c0.3,0.1,1,0.6,1.2,0.1
		c0.3-0.8,0.3-1.8-0.2-2.5c-0.2-0.4-0.6-0.6-0.9-0.9c-0.5-0.4-0.9-0.9-1.3-1.3c-0.7-0.5-1.5-0.8-2.2-1.4c-0.3-0.2-0.5-0.4-0.6-0.7
		c-0.1-0.2-0.2-0.5-0.2-0.7c0-0.2-0.2-0.5-0.2-0.7c-0.1,0.2-0.3,0.4-0.5,0.6c-0.3,0.2-0.7,0.3-1.1,0.5c-0.8,0.4-1.6,0.7-2.3,1
		c-1.6,0.7-3.2,1.2-4.8,1.7c-3.2,1-6.6,1.6-10,1.7c-0.8,0-1.7-0.3-2.5,0c-0.9,0.4-1,1.4-1.2,2.2c-0.3-0.4-0.4-1-0.5-1.5
		c-0.1-0.5,0-1.2-0.4-1.6c-0.1-0.1-0.2-0.1-0.4-0.1c-0.4,0-0.8,0-1.1,0.3c-0.2,0.2-0.9,0.9-1,1.1c-0.2-1,0.5-2,0.6-3
		c0-0.1,0-0.2,0-0.3c0-0.1-0.1-0.2-0.2-0.2c-0.3-0.2-0.6-0.2-0.9-0.2c-0.3,0.1-0.7,0.2-0.9,0.3c-0.2,0.1,0.2-0.4,0.2-0.4
		c0.1-0.1,0.2-0.3,0.4-0.4c0.3-0.2,0.6-0.4,0.9-0.5c0.8-0.4,2-0.8,2-1.9c0-0.4-0.2-0.8-0.4-1.1c-0.1-0.2-0.5-0.7-0.8-0.8
		c0.5,0.1,1.1,0.2,1.5,0.5c0.3,0.3,0.4,0.7,0.7,1c0.5,0.6,1.2,0.6,1.9,0.6c0.8,0.1,1.6,0.2,2.5,0.1c0.4-0.1,0.9-0.3,1.3-0.5
		c0.4-0.2,0.8-0.3,1.2-0.5c0.9-0.4,1.8-1,2.6-1.5c0.3-0.2,0.5-0.4,0.8-0.5c0.3-0.1,0.6-0.2,0.8-0.3c1-0.3,2-0.4,3.1-0.5
		c0.1,0,0.1,0,0.2,0c0,0,0.1-0.1,0.1-0.1c0.6-0.5,0.9-1,1.2-1.7c-0.2,0.4-1.4,0.1-1.7,0c-1-0.2-1.9-0.7-2.8-1.1
		c-2-1.1-3.9-2.6-5-4.6c-0.2-0.4-0.4-0.8-0.6-1.1c-0.3-0.6-0.6-1.1-0.9-1.7c-0.2-0.5-0.3-1.1-0.4-1.7c-0.2-0.6-0.4-1.2-0.7-1.7
		c-0.1-0.3-0.3-0.5-0.5-0.7c-0.8-0.8-2-1.7-3.1-1.7c0.4-0.1,0.7-0.2,1.1-0.3c0.7-0.2,1.3-0.4,1.9-0.8c0.3-0.2,0.4-0.7,0.4-1.1
		c0-0.2-0.1-0.3-0.2-0.5c-0.2-0.4-0.5-0.7-0.7-1.1c-0.1-0.1-0.2-0.3-0.4-0.4c-0.1-0.1-0.3-0.5-0.4-0.5c0.2,0.1,0.5,0.2,0.7,0.3
		c0.6,0.2,1.1,0.4,1.6,0.7c0.4,0.2,1.3,0.6,1.7,0.2c0.1-0.1,0.1-0.3,0.1-0.5c0-0.8,0.1-1.7,0-2.5c0-0.3,0.2,0,0.3,0.2
		c0.4,0.5,0.6,1.2,0.9,1.8c0.4,0.8,1,1.4,1.9,1.1c0.7-0.2,1.1-1,1.3-1.6c0,0,0,1.2,0,1.2c-0.1,0.5-0.4,0.8-0.6,1.2
		c-0.4,0.5-0.6,1.2-0.5,1.9c0.2,1.7,1.1,3.1,1.9,4.5c0.4,0.7,0.8,1.4,1.4,2c0.4,0.4,0.9,0.8,1.3,1.2c0.3,0.4,0.6,1,1,1.3
		c0.7,0.6,2.2,0.6,2.9,0c0.2-0.2,0.3-0.4,0.4-0.6c0.5-0.8,1-1.5,1.3-2.3c0.4-0.9,0.6-1.8,1-2.7c0.2-0.5,0.4-1.1,0.6-1.6
		c0.1-0.2,0.2-0.4,0.3-0.7c0.5-1,1.4-1.6,2.4-2.1c0.6-0.4,1.2-0.5,1.8-0.8c-0.6-0.3-1.2,0-1.8,0c-0.4,0-0.8-0.1-1.1-0.4
		c-0.2-0.2-0.4-0.4-0.5-0.7c-0.2-0.3-0.3-0.6-0.3-0.9c0-0.3,0-0.5,0-0.8c0-0.3,0-0.7-0.2-0.9c-0.1-0.3-0.4-0.5-0.5-0.8
		c0-0.1,0-0.3-0.1-0.4c-0.1-0.2-0.4-0.3-0.6-0.3c-0.6-0.1-1.1-0.2-1.7,0c-0.3,0.1-0.7,0.2-1,0c-0.1-0.1-0.2-0.2-0.3-0.3
		c-0.4-0.6-0.9-1.3-1.4-1.8c-0.1-0.1-0.3-0.3-0.4-0.4c-0.3-0.4-0.4-0.9-0.5-1.4c0.1,0.2,0.3,0.3,0.4,0.4c0.2,0.1,0.4,0.4,0.5,0.6
		c0.2,0.3,0.3,0.5,0.5,0.8c0.2,0.4,0.6,0.6,0.9,0.9c0.5,0.3,1,0.5,1.6,0.6c0.5,0.1,1.1,0,1.6,0c0.9,0.1,1.7,0.6,2.2,1.3
		c0.5,0.7,0.9,1.2,1.9,1.1c0.7-0.1,1.3-0.6,1.8-1.1c0.4-0.3,0.7-0.7,0.8-1.2c0.2-0.6-0.1-1.2-0.5-1.7c-0.4-0.4-1-0.7-1.6-0.8
		c-0.5-0.1-1-0.2-1.5-0.1C175.1,201.8,175,201.9,174.8,202.1z"/>
	<g>
		<g>
			<g>
				<path fill="#010101" d="M200.4,164c2.3,1.6,4.7,3.2,7.1,4.7c0.3,0.2,1,0.7,1.4,0.3c0.6-0.6-0.9-1.3-1.2-1.5
					c-1.1-0.7-2.1-1.6-3.2-2.4c-1.5-1.2-3-2.2-4.6-3.3c-1.5-1-3-2.2-4.4-3.3c-2.7-2-5.3-4.1-8-6c-0.3-0.2-0.4-0.5,0-0.8l0.1,0
					c1.5-0.5,3.1-0.3,4.7-0.3c0.2,0,0.4,0,0.7-0.1c0.6-0.4,0.8-0.6,0.2-1c-0.4,0-1.2-0.8-1.5-1.1c-0.5-0.4-1.1-0.7-1.6-1.1
					c-1.1-0.8-2.2-1.5-3.3-2.3c-2.1-1.5-4.2-2.9-6.3-4.4c-1.5-1.1-3.1-2.1-4.7-3.1c-3.3-2.2-6.5-4.7-9.9-6.5c-0.5-0.3-1-0.7-1.5-1
					c0-0.2-0.1-0.4-0.1-0.7c1.4,0.8,2.7,1.5,4.1,2.3c0.4,0,0.9,0.5,1.3,0c0.4-0.3,0-0.5-0.1-0.7c-0.1-0.3-2-1-2.3-1.2
					c-1.1-0.5-2.2-1-3.2-1.6c-1.1-0.6-2.1-1.2-3.3-1.5c-0.3-0.1-0.7-0.1-1-0.4c-0.2-0.1-0.3-0.3-0.5-0.5c-0.6-0.5-1.4-0.6-2.1-0.8
					c-0.7-0.2-1.5-0.7-1.5-1.5c0-0.2,0.1-0.5,0-0.6c-0.1-0.1-0.2-0.2-0.3-0.2c-1.5-0.8-2.9-1.5-4.4-2.3c-0.4-0.2-0.7-0.4-1.1-0.5
					c-0.5-0.2-1.1-0.3-1.5-0.6c-1.2-0.6-2-2.5-2.6-3.7c-0.7-1.5-1-3.2-0.7-4.9c0-2.6-1.8-4-3.5-5.6c-1.5-0.7-3-1.3-4.7-1.6
					c-5-0.6-8.3,1.4-10.1,6.1c0,0.1,0,0.2,0,0.3c0,0.5-0.1,1-0.1,1.6c0,0.5,0,1,0,1.5c0,0.5,0,1,0.1,1.5c0.5,0.7,0.4,1.5,0.4,2.3
					c0.2,1.4,1.2,2.7,0.2,4.2l0,0.2c0.6,0.1,0.7,0.5,0.6,1c0,0.5-0.2,0.9-0.7,1.1c-0.7,0.7-0.9,1.9-1.9,2.3c-0.9,0.9-1.9,1.7-3.3,2
					c0.7-0.8,1.4-1.6,2.1-2.4c0.3-0.5,0.9-0.9,0.8-1.6c-0.4,0.2-0.7,0.4-1.1,0.5c-0.3,0.1-0.6,0.7-0.8,1c-0.3,0.3-0.6,0.7-0.8,1
					c-0.6,0.7-1.1,1.3-1.7,1.9c-1.2,1.3-2.6,2.8-4.1,3.8c-0.9,0.6-1.8,1.2-2.6,1.7c-0.8,0.5-1.7,1.2-2.6,1.6c0-0.4,0.5-0.7,0.8-0.9
					c0.6-0.5,1.2-1,1.8-1.6c1.7-1.7,3.5-3.4,5.3-4.9c1.2-1,2.4-2,3.5-3c0.6-0.5,1.1-1,1.6-1.5c0.2-0.3,0.5-0.6,0.3-0.9
					c-0.1-0.2-0.4-0.3-0.7-0.2c-0.2,0.1-0.4,0.2-0.6,0.4c-4.2,3.8-8.4,7.6-12.6,11.4c-0.2,0.1-0.3,0.3-0.4,0.5
					c-0.1,0.3,0,0.6,0.2,0.7c0.2,0.2,0.5,0.2,0.8,0c-0.2,0.4-0.5,0.8-0.9,1.1c-0.4,0.4-0.8,0.6-1.2,1c-0.6,0.6-1.2,1.2-1.9,1.8
					c-1.2,1.2-2.4,2.3-3.5,3.6c-2.2,2.5-4.4,5.1-5.9,8c-0.9,1.7-0.2,3.6,0.7,5.3c1.3,2.6,3.3,4.6,5.6,6.3c0.1,0.1,0.3,0.2,0.4,0.3
					c0.2,0.2,0.4,0.3,0.7,0.5c0.5,0.3,0.3,0.6,0.1,0.9c0.1,0.1,0.1,0.2,0,0.3c0,0.1,0,0.2-0.1,0.3c0,0.1,0,0.3-0.1,0.4
					c0,2.1,1,3.4,2.8,4.3c1.2,0.6,2.4,1.3,3.4,2.1c1.5,1.2,1.4,1.6-0.3,2.5c-2.4,1.3-3.7,2.7-4.7,5.3c0,0.1-0.1,0.2-0.1,0.4
					c0,0.1,0,0.3,0.1,0.4c0.6,1.8,1.4,3.6,3.1,4.6c1.5,0.9,3.3,1.2,5,0.8c5.2-1.2,10.2-2,15.5-2.4c5.4-0.3,10.8-0.3,16.1,0.1
					c3,0.2,6.1,0.6,9.1,1c1.5,0.2,3,0.4,4.5,0.7c1.3,0.2,2.7,0.6,4,0.3c0.4-0.1,0.8-0.3,1.1-0.6c0.3-0.3,0.5-0.8,0.3-1.2
					c0,0.1,0,0.2,0,0.3c0.5-1.1,1.2-2.3,1.2-3.6c0.1-1.3-0.6-2.8-1.4-3.7c-0.7-0.8-1.8-1.3-2.9-1.4c-0.4,0-0.9,0.4-0.7,0.7
					c2,0,3.9,1.7,4.1,3.7c0.2,2-1.4,4-3.4,4.4c-0.2,0-0.4,0-0.5,0c-0.6-0.2-0.4-1.3-0.8-1.8c-0.4-0.5-1.2-0.5-1.5-1
					c-0.1-0.2-0.1-0.5,0-0.8c0.1-0.7,0.2-1.4,0.3-2.2c0.1-0.5,0.1-0.9,0.3-1.4c0.2-0.4,0.6-0.8,1-0.9c0.1,0,0.3,0,0.4-0.1
					c0.2-0.1,0.1-0.4,0-0.6c-0.2-0.2-0.4-0.2-0.6-0.2c-0.9-0.1-1.7,0-2.6,0c-0.5,0-2.4-0.1-2.8,0.2c-0.7,0.6-1.4,0.7-2.2,0.2
					c-4.4-3.2-8.7-6.3-13.1-9.5c-1.8-0.9-3.3-2-4.3-3.7c-0.2-0.2-0.4-0.3-0.7-0.5c-0.2-0.1-0.3-0.2-0.5-0.3
					c-1.7-0.8-3.4-1.5-5.1-2.4c-0.9-0.5-1.9-1-2.1-2.2c-0.9-1.3,0.2-2.9-0.8-4.2c-0.1-0.1-0.3-0.2-0.4-0.3c-2.2-1.7-4.9-1-7.5-1.6
					c0.4-0.9,0.8-1.6,1.7-2c0.2-0.3,0.4-0.7,0.6-1c0.2-0.3,0.5-0.5,0.7-0.8c0.1-0.1,0.2-0.3,0.4-0.4c0.1-0.1,0.2-0.3,0.3-0.4
					c0.4-1,1.1-1.7,2.1-2.2c0.6,0.7-0.4,1.4,0.2,2.2c1.3-1.2,1-3,1.9-4.3c0.2-1,0.4-2.1,1.3-2.9c0.3-0.4,0.7-0.8,1.2-1.5
					c0.2,1.1-0.1,1.7-0.4,2.4c0,0.1,0,0.2-0.1,0.3c-0.5,0.6,0.5,1.7,1,0.4c0.2-0.4,0.3-0.9,0.4-1.4c0-0.1,0-0.1,0-0.2
					c0,0-0.1-0.1-0.1-0.1c0-0.1,0-0.2,0-0.2c0.4-1.1,0.3-2.3,0.6-3.5c0.3-1.2,1-2.3,2.1-2.9c0.2-0.1,0,1.6,0,1.7
					c0,0.4,0.1,0.7,0.4,0.5c0.2-0.2,0.4-0.9,0.5-1.2c0.3-0.8,0.4-1.7,0.5-2.5c0-0.3,0.1-0.7,0.4-0.8c0.2,0,0.4,0.1,0.5,0.2
					c0,0,0.1,0.1,0.1,0.1c0,0.1,0,0.1,0,0.2c-0.4,1.4-0.4,2.8-0.6,4.2c0,0,0.6,0,0.7-0.4c0.1-1.1,0.3-2.2,0.5-3.2
					c0.1-0.4,0.2-0.9,0.2-1.3c0-0.4-0.2-0.8-0.2-1.2c0-0.9,0.8-1.1,1.5-1.4c0.5-0.2,1-0.6,1.4-0.9c1.7-1,3.9-1.2,5.7-2
					c1.6-0.7,2.9-1.9,3.5-3.6c0.5,0.6,0.8,1,1.1,1.5c1.3,1.2,2.8,2.2,3.8,3.7c2,0.7,3.3,2.4,5.2,3.2c1.3,0.8,2.3,2.6,4.3,1.8
					c0.1,0,1.3,1,1.5,1.1c0.6,0.3,1.1,0.6,1.6,1c1.2,0.9,2.5,1.7,3.8,2.6c2.5,1.7,5.1,3.5,7.6,5.2c1.1,0.8,2.3,1.5,3.4,2.4
					c1.7,1.3,3.4,2.6,5,4.1c0.5,0.4,2.4,1.4,2.1,2.2c-0.1,0.4-0.6,0.2-0.8,0.2c-1.7-0.2-3.5-0.7-5.3-0.7l-0.1,0
					c-0.2,0.3-0.3,0.6-0.5,1c1.6,1.1,3.4,2,5,3.2C190,156.8,195.2,160.4,200.4,164z M132.6,106.9c0,0.1-0.6,0.8-0.6,0.8
					c-0.3,0.2-0.7,0.4-0.8,0.7c-0.3,0.6,0.3,0.4,0.7,0.3c0.5-0.2,1.1-0.4,1.6-0.6c0.5-0.2,1.4-0.7,2-0.7c0.1-0.1,0.3-0.2,0.2-0.4
					c0-0.1-0.1-0.1-0.2-0.1c-0.4-0.1-0.8-0.2-1.2-0.3c1.5,0.2,3,0.4,4.4,1.1c1.7,0.9,2.7,2.4,2.9,4.3c0,0.4,0.1,0.8,0.4,1
					c0.1,0.2,0.4,0.3,0.6,0.2c0.3,0,0.5-0.3,0.6-0.6c0.1-0.3,0.2-0.6,0.4-0.8c-0.1,0.1,0,1.4-0.1,1.7c-0.1,0.5-0.4,1.1-0.7,1.5
					c-0.6,0.8-1.4,1.2-2.2,1.7c-0.4,0.2-0.8,0.5-1.2,0.8c-0.4,0.4-0.8,0.8-1.2,1.1c-1.1,0.8-2.6,0.9-3.9,0.5
					c-0.8-0.2-1.6-0.6-2.4-0.9c-0.3-0.1-0.9-1-1.2-0.8c-0.9,0.6,1.6,1.8,2.1,1.9c1.1,0.4,2.3,0.5,3.5,0.6c-0.7,0-1.4,0.3-2.1,0.3
					c-0.7,0-1.5-0.1-2.2-0.3c-1.9-0.6-2.9-2.4-3.5-4.2c-0.4-1.3-0.6-2.7-0.4-4c0.2-1.3,0.8-2.6,1.7-3.6
					C130.5,107.4,131.5,106.8,132.6,106.9z M134.6,130.9c0,0.1,0,0.3,0,0.4C134.6,131.1,134.6,131,134.6,130.9z M142.2,122.9
					c-0.3,0.2-0.7,0.3-1,0.5c-1.2,0.5-2.4,1-3.6,1.3c-0.6,0.2-1.3,0.3-1.9,0.4c-0.7,0.1-0.6,0.5-1,1.1c-0.7,1.1-1.6,2.2-2.4,3.2
					c-0.7,1-1.4,2-2.1,3.1c-0.4,0.5-0.6,1.2-1,1.6c-0.5,0.5-1,0.8-1.5,1.3c-0.4,0.4-0.6,1-0.9,1.5c-0.9,1.9-2.1,3.6-3.5,5.2
					c-1.5,1.6-2.8,3.3-4.4,4.8c-1.7,1.6-3.6,3-5.8,3.9c-0.3,0.1-0.7,0.1-0.7,0.4c-0.1,0.3,0.3,0.5,0.6,0.6c0.3,0.1,0.6,0.1,0.9,0.2
					c1.6,0.2,3.1,0.7,4.4,1.5c1.5,0.9,0.5,3.5-0.1,4.8c-0.8,1.7-2.1,3.1-3.7,4c-0.3,0.2-0.6,0.3-0.9,0.4c-0.4,0.1-0.7,0.1-1.1,0.1
					c-0.8,0.1-1.5,0.3-2.3,0.3c-1.3,0.1-2.6-0.3-3.8-0.8c-1.1-0.5-2.1-1.3-3.1-2c-0.9-0.6-1.8-1.2-2.4-2.1c-0.7-0.9-1.1-2.1-1.5-3.2
					c-0.2-0.8-0.5-1.6-0.4-2.4c0.1-0.8,0.5-1.6,0.9-2.3c0.2-0.3,0.4-0.7,0.6-1c0.1-0.2,0.3-0.5,0.4-0.7c0.1-0.1,0.2-0.3,0.3-0.4
					c0.1-0.2,0.2-0.3,0.3-0.5c0.6-1,1.3-1.7,2.1-2.6c0.8-0.9,1.5-1.8,2.4-2.6c1.7-1.6,3.6-2.9,5.4-4.3c3-2.3,6.2-4.5,9.2-6.8
					c0.2-0.2,0.5-0.4,0.7-0.6c1.8-1.4,3.6-2.8,5.1-4.5c1.3-1.5,3.4-3.6,3.1-5.7c2.4,0.3,3,2.5,4.6,3.5c0.3,0,0.6,0,0.7-0.1
					c2.1-2,5.1-1.7,7.4-2.9c1-0.5,0.7-1.5,1-2.3c0.2-0.4,0-1.1,0.8-1c0.5,0.1,0.6,0.5,0.7,1C145.1,120.7,143.8,122.1,142.2,122.9z"
					/>
				<path fill="#010101" d="M101.8,138.9c6.4-5.2,12.8-10.4,19.3-15.5c1-0.8,2-1.6,3-2.4c0.3-0.2,0.6-0.5,1-0.6
					c0.1,0,0.3-0.1,0.4-0.1c0.1-0.1,0.3-0.2,0.2-0.4c-0.1-0.5-0.9-0.4-1.3-0.3c-0.8,0.1-1.2,0.3-1.8,0.8c-1.4,1.2-3,2.1-4.5,3.2
					c-1.9,1.3-3.7,2.5-5.6,3.8c-0.3,0.2-0.6,0.4-0.6,0.8c0,0.3,0.2,0.7,0.1,1c-0.1,0.2-0.4,0.3-0.6,0.3c-0.2,0-0.5-0.1-0.7-0.1
					c-0.3,0-0.6,0.1-0.9,0.3c-0.5,0.3-1.1,0.5-1.6,0.8c-0.5,0.2-0.9,0.5-1.2,0.9c-0.2,0.3-0.2,0.7-0.3,1.1c-0.2,0.8-0.9,1.1-1.5,1.6
					c-0.7,0.5-1.2,1.2-1.9,1.7c-6.5,4.8-12.9,9.8-19.2,14.8c-1.3,1.1-2.6,2.2-4,3.2c-0.3,0.3-0.8,0.5-0.6,1c0,0,0,0,0,0.1
					c0,0,0,0,0.1,0c1.6,0,3.1,0,4.7,0c0.8,0,1.6,0,2.4,0c0.7,0,1.6-0.1,2.4,0c-0.1,0-0.2,0.1-0.3,0.2c-0.5,0.4-0.9,0.9-1.3,1.4
					c-0.6,0.6-1.2,1.1-1.8,1.7c-3.5,3.3-7,6.7-10.5,10.1c-1.7,1.7-3.5,3.4-5.2,5.1c-0.6,0.6-5.1,5-6.2,6.2c-0.2,0.2-0.8,0.7-0.8,1
					c0.1,0.4,0.5,0.2,0.7,0c1.6-1.5,3.2-2.9,4.8-4.4c0.1-0.1,0.2-0.2,0.4-0.3c6.1-5.6,12.2-11.1,18.3-16.7c0.9-0.8,1.9-1.6,2.7-2.6
					c0.9-1,1.8-2,2.7-3c0.1-0.1,0.8-0.6,0.7-0.9c-0.1-0.3-1.6-0.1-1.9-0.1c-1.1,0.1-2.2,0.1-3.3,0c-0.4,0-0.9-0.1-1.3-0.2
					c-0.1,0-0.7-0.1-0.7-0.1c0.3-0.5,1-0.9,1.4-1.3C92.1,146.9,96.9,142.9,101.8,138.9z"/>
				<path fill="#010101" d="M105.9,128.9L105.9,128.9c0-0.5,0.3-0.8,0.8-0.8l0.1-0.1l0.1,0.1c0.2-0.4,0.5-0.7,1-0.7l0.1-0.1l0.1,0
					c2-1.4,4.3-2.4,6.5-3.4c2.1-1.1,4.2-2.2,6.3-3.4c0.6-0.3,1.4-0.4,1.7-1.2c-0.6-0.7-1.1-0.2-1.6,0.1c-1.6,0.7-3.1,1.5-4.7,2.2
					c-3.5,1.9-6.9,3.9-10.6,5.4c-0.6,0.3-1.3,0.6-0.9,1.5C105,129,105.5,128.9,105.9,128.9z"/>
				<path fill="#010101" d="M118.9,118c-2.6,0.9-5.1,1.7-7.6,2.6l-0.2,0l-0.2,0c-0.3,0.4-0.7,0.4-1.2,0.5c-0.2,0.2-0.7,0.4-0.6,0.6
					c0.1,0.6,0.7,0.5,1,0.4c1.6-0.5,3.1-1,4.6-1.5c0.3-0.4,0.7-0.3,1-0.3c0.1,0,0.3-0.1,0.4-0.1c1.9-0.7,3.8-1.3,5.6-2
					c0.2-0.7-0.1-1.1-0.7-1.3c-0.6-0.1-0.3-0.9-0.7-1c-1.5-0.2-2.9,0.2-4.3,0.5c-0.1,0-0.2,0.4-0.2,0.5c0.2,0.2,0.4,0.3,0.6,0.3
					c0.7-0.1,1.3-0.4,2-0.4c0.4,0,1.2-0.3,1.3,0.4C120.1,117.7,119.4,117.8,118.9,118z"/>
				<path fill="#010101" d="M101.8,119.5c-0.3,0.2-0.8,0.2-0.6,0.7c0.1,0.4,0.6,0.2,0.9,0.3c0.6-0.4,1.3-0.3,1.9-0.4
					c1.6-0.5,3.2-0.9,5-0.8c1.2-0.4,2.3-0.9,3.5-1.2c0.9-0.2,2.5,0,2.4-1c-0.1-1-1.6,0.1-2.4-0.1c-3.2,0.7-6.4,1.4-9.6,2.1
					C102.5,119.4,102.2,119.4,101.8,119.5z"/>
				<path fill="#010101" d="M105.4,123.4c-0.8-0.3-1.5,0.1-2.2,0.2c-0.4,0.2-1.1,0-1,0.6c0.1,0.6,0.7,0.4,1.1,0.2
					C104.1,124.2,105,124.2,105.4,123.4z"/>
				<path fill="#010101" d="M170.5,128.9c1.5-1.2-0.2-1.2-0.6-1.4c-5.3-2.4-10.6-4.6-15.9-7c-0.7-0.3-1.5-0.5-2.2-0.9
					c-0.6-0.3-0.9-0.1-1,0.5c0.9,0.5,1.8,1,2.7,1.4C159.3,123.7,164.8,126.4,170.5,128.9z"/>
				<path fill="#010101" d="M169.9,123.7c-3-1-6.1-1.7-9-3.1c-0.3,0-0.5,0-0.8,0c-1.4-0.4-2.9-0.7-4.2-1.5l0,0c-0.5,0-0.9,0-1.3-0.4
					c-0.1,0-0.1,0-0.2,0c-0.3,0-0.6,0-0.8-0.4c-0.5,0-0.9-0.1-1.2-0.4c-0.5,0-1.1-0.2-1.2,0.5c-0.1,0.5,0.5,0.6,0.9,0.7
					c1,0.2,1.9,0.4,2.7,1.1c0.7,0.2,1.5,0.3,2.2,0.5c5.1,1.6,10.2,3.2,15.3,4.8C172.3,123.8,170.8,124,169.9,123.7z"/>
				<path fill="#010101" d="M174.6,112.9c-0.4-0.1-0.8-0.2-1.2-0.3l-0.1,0c0,0-0.1,0-0.1,0c-0.3,0.1-0.6,0.2-0.9,0.2
					c-6.5-0.1-13,0.1-19.5-0.3c-0.6,0-1.2-0.1-1.6,0.6c0.3,0.6,0.9,0.5,1.3,0.6c0.6,0,1.3-0.1,1.9-0.1c6.7,0,13.4-0.1,20.2-0.1
					C174.6,113.3,174.6,113.1,174.6,112.9z"/>
				<path fill="#010101" d="M141.1,98.3c0.4,0,0.7,0,1.1-0.1c0.3-1.6,1.2-3.1,1-4.8c-0.3,0-0.6,0-0.9,0c-0.1,0.9-0.3,1.8-0.8,2.6
					c-0.1,0.3-0.1,0.6-0.2,0.8c-0.1-0.1-0.2-0.1-0.2-0.2c-0.1-0.3,0-0.6,0.3-0.7c-0.1-1-0.1-2.1,0.4-3c0-0.2,0-0.4,0-0.6l0,0
					c-0.5-0.1-0.9,0.1-1.2,0.4c-0.4,0.9-0.3,2.7-0.6,2.6c-2.5-0.8-1,1.5-1.7,2C139.1,97.7,140.2,97.6,141.1,98.3z"/>
				<path fill="#010101" d="M149.1,92.6c-0.1,0.1-0.3,0.2-0.4,0.4c-0.2,0.2-0.5,0.3-0.7,0.5c-0.1,0.4,0.1,0.9-0.4,1.2
					c0,0.1,0,0.2-0.1,0.2c-0.8,1.5-1.7,2.9-2.6,4.4c-0.5,0.8-0.5,1.3,0.6,1.2c1.4-2.2,2.1-4.9,4.6-6.4c-0.1-0.5,0.2-1.1-0.3-1.6
					C149.6,92.6,149.3,92.6,149.1,92.6z"/>
				<path fill="#010101" d="M139.9,85.2c0,0,0-0.1,0-0.1c0-0.4,0.1-0.8,0.1-1.1c0-0.8,0-1.5,0-2.3c0.4-1-0.8-2,0-3
					c-0.2-0.5,0.3-1.3-0.7-1.5c-0.6,2.7-0.3,5.5-0.4,8.2l-0.1,0.1C139.1,85.3,139.5,85.2,139.9,85.2z"/>
				<path fill="#010101" d="M145.2,76.9c-0.4-0.8-0.8-1-1.2-0.1c-0.3,0.7-0.6,1.5-0.1,2.3C145.3,78.9,144.5,77.5,145.2,76.9z"/>
				<path fill="#010101" d="M131.4,77.1c0-0.4-0.1-0.7-0.1-1.1c-0.9-0.2-0.9,0.5-1,1.1c0.1,0.4,0,1,0.6,1
					C131.6,78,131.5,77.5,131.4,77.1z"/>
				<path fill="#010101" d="M149.6,100c-0.6,1.1-2.3,1.4-2.4,3c0.4,0.1,0.7-0.1,0.9-0.3c-0.3,0.2-0.5,0.4-0.9,0.3
					c0,0.1,0,0.2,0.1,0.3c0.8,0,0.7,0.9,1.3,1.1c6.4-4.2,12.8-8.4,19.2-12.6c0.4-0.3,1.1-0.5,0.8-1.1c-0.3-0.7-0.9-0.1-1.3,0.1
					c-0.2,0.1-0.4,0.2-0.7,0.4c-5.3,3.5-10.7,7-16,10.5c-0.5,0.3-0.8,1.1-1.6,0.5c3.6-3.3,7.3-6.6,10.9-9.9c1.6-1.5,3.3-3,4.9-4.5
					c0.3-0.2,0.7-0.5,0.4-0.9c-0.3-0.5-0.7,0-1,0.1c-0.2,0.1-0.4,0.3-0.6,0.5c-1.9,1.6-3.5,3.5-5.6,4.9c-0.2,0.1-0.4,0.3-0.5,0.4
					l0.1,0.1c-0.3,0.8-1.1,1-1.5,1.6c-1.3,1.1-2.5,2.2-3.8,3.3c-0.3,0.2-0.6,0.5-0.9,0.7c-0.3,0.2-0.5,0.5-0.8,0.7
					c-0.2,0.2-0.5,0.4-0.7,0.6C149.8,99.8,149.7,99.9,149.6,100z"/>
				<path fill="#010101" d="M151.6,107.6c3.2-1.2,6.5-2.4,9.7-3.6c0.2,0,0.4,0,0.6-0.1c0.5-0.7,1.4-0.8,2.1-1.2
					c-0.1-0.1-0.2-0.2-0.3-0.3c-0.5,0.1-1,0.2-1.5,0.3c-2.4,1-4.7,2-7.2,2.5c-1.2,0.7-2.4,1.2-3.8,1.5c-0.2,0.3-0.9,0.3-0.6,0.8
					C150.7,108.1,151.2,107.8,151.6,107.6z"/>
				<path fill="#010101" d="M167.4,105.3c-1.3,0.3-4.2,1.1-3.9,1.6c0.2,0.3,0.7,0.2,1,0.2c2.5-0.4,4.9-1.5,7.4-1.6
					c0.6,0,1.3,0,1.8-0.4c0.3-0.3,0.5-0.7,0.4-1.1c0-0.1,0-0.1-0.1-0.1c0,0-0.1,0-0.2,0c-2,0.4-4,0.8-6,1.3
					C167.9,105.2,167.7,105.3,167.4,105.3z"/>
				<path fill="#010101" d="M169.9,95.2c-2.7,1.3-5.4,2.7-8.2,4c-0.3,0.2-0.6,0.3-0.4,0.7c0.1,0.3,0.4,0.5,0.8,0.4
					c0.4-0.1,0.7-0.3,1.1-0.4c0.5-0.4,1.2-0.7,1.9-0.8c1.5-1.3,3.5-1.9,5.2-3c0.3-0.2,0.6-0.3,0.5-0.7
					C170.6,95,170.2,95.1,169.9,95.2z"/>
				<path fill="#010101" d="M165.5,102.2c0.1,0.1,0.1,0.1,0.1,0.2c0.2,0.1,0.5,0.1,0.7,0.2c2.2-1,4.7-1.5,6.7-3.1
					c-2.4-0.1-4.4,1.2-6.6,1.6C166,101.5,165.4,101.6,165.5,102.2z"/>
				<path fill="#010101" d="M154.8,104.3c0.4-0.4,0.9-0.8,1.4-0.8c0.8,0.1,1-0.4,0.9-0.9c-0.2-0.8-0.8-0.4-1.2-0.2
					c-1.8,0.8-3.5,1.6-5.3,2.5c-0.3,0.2-0.6,0.5-0.8,0.7c0,0.3,0.1,0.5,0.1,0.8c0.2,0,0.5,0,0.7,0C152,105.7,153.4,105,154.8,104.3z
					"/>
				<path fill="#010101" d="M175.3,108.6c0-1.1-1-0.4-1.4-0.3c-4.9,0.4-9.7,0.8-14.6,1.3c-1.3,0.1-2.5,0.3-3.8,0.4
					c-0.3,0-0.7,0.2-0.7,0.5c0,0.4,0.3,0.5,0.7,0.5c0.6,0,1.1,0,1.7-0.1c3.8-0.4,7.6-0.7,11.3-1.1c1.4-0.1,2.8-0.2,4.3-0.4
					c0.3-0.2,0.6-0.2,0.9-0.1C174.4,109.5,175.3,109.1,175.3,108.6z"/>
				<path fill="#010101" d="M171,117.1c-0.3-0.7-1-0.7-1.6-0.8c-5.4-0.7-10.7-1.3-16.1-2c-0.6,0.2-1.7-0.4-1.8,0.5
					c0,1.1,1.2,0.6,1.8,0.7c1.9,0.3,3.7,0.5,5.6,0.8c4,0.4,7.9,0.8,11.9,1.2C170.9,117.4,170.9,117.2,171,117.1z"/>
				<path fill="#010101" d="M152.2,109.2c2.6-0.5,5.2-1.5,7.9-1.5c0.6,0,1.2-0.4,1.7-0.7c0.3-0.1,0.6-0.3,0.6-0.7
					c-0.1-0.6-0.6-0.3-0.9-0.3c-2.4,0.5-4.8,1-7.2,1.6c-1.3,0.3-2.6,0.3-3.8,1.1C150.9,109.5,151.5,109.3,152.2,109.2z"/>
				<path fill="#010101" d="M151.5,116.4c1.4,0.9,2.9,1.1,4.6,1.1C154.7,116.3,153.1,116.4,151.5,116.4z"/>
				<path fill="#010101" d="M157.3,118c0.7,0.8,1.8,0.3,2.6,0.9c1.2-1.4-0.5-1-0.9-1.4C158.4,117.6,157.7,117.1,157.3,118z"/>
				<path fill="#010101" d="M112.4,93c0.3,0.4,0.6,0.7,0.9,1.1c0.3,0.2,0.6,0.5,0.7,0.9c0.1,0.1,0.2,0.2,0.2,0.3
					c0.8,0.1,1.3,0.7,1.8,1.2c0.3,0.3,0.6,0.5,0.9,0.8c0.3,0.3,0.6,0.5,1,0.8c0.9,0.4,1.2,1.5,2.2,1.6c1.3,1,2.8,1.9,3.8,3.3
					c0.7,0,1.3-0.2,0.9-1.1c-0.2-0.4,0-0.6,0.3-0.7c-0.1-0.4-0.3-0.8-0.4-1.2c-1-0.7-1.9-1.6-2.7-2.6c-0.5-0.3-1-0.6-1.5-0.9
					c-0.8,0.5,0.2,0.9,0.1,1.4c1,0.3,1.5,1.1,2,2c-0.9-0.4-1.6-0.9-2.2-1.7c-1.8-1.1-3.2-2.6-4.9-3.9c-0.7-0.5-1.4-1-2-1.6
					C112.9,92.2,112.5,92.4,112.4,93z M124,100.9c0.1,0,0.1,0.2,0.2,0.3c-0.1,0-0.2,0.1-0.3,0.1c-0.1,0-0.2-0.1-0.2-0.2
					C123.7,100.7,123.9,100.8,124,100.9z"/>
				<path fill="#010101" d="M104,101.1c-0.2-0.1-0.5-0.1-0.7-0.2c-0.5-0.1-1.1-0.6-1.3,0.1c-0.2,0.7,0.6,0.6,1,0.8
					c0.8,0.4,1.6,0.7,2.4,1c0.5,0,1.1,0.4,1.5-0.3c-0.4-0.7-1.3-0.5-1.7-1l0,0C104.7,101.5,104.3,101.5,104,101.1z"/>
				<path fill="#010101" d="M101.9,107l0.1,0l0.1,0c0.4,0,0.8,0,1.1,0c0.3-0.1,0.8-0.1,0.7-0.7c-0.3-0.1-0.7-0.2-1-0.3
					c-0.4,0-0.8-0.1-1.2-0.1C101.2,106.5,101.7,106.7,101.9,107z"/>
				<path fill="#010101" d="M155.4,89.2c0,0.3-0.1,1.4,0.9,0.8c0.8-1.3,2-2.1,3-3.1c0.1-0.1,0.2-0.2,0.4-0.4c0.4-1.2,2-1.6,2-3
					C160.8,83.6,155.3,88.5,155.4,89.2z"/>
				<path fill="#010101" d="M157,81.5c-0.4-0.2-0.6,0.1-0.8,0.3c-0.4,0.5-0.5,1.4-1.4,1.4l0,0c0,0.1,0,0.2-0.1,0.3
					c0,1.2-0.9,1.8-1.5,2.7c0.1,0.6-0.4,0.8-0.7,1.2c0,0.3-0.4,0.7,0,1c0.2,0,0.5,0.1,0.6,0c1.7-1.8,2.8-4.1,4.2-6.2
					C157.4,81.9,157.3,81.6,157,81.5z"/>
				<path fill="#010101" d="M116.1,85.5c-0.6-0.9-1.1-1.6-2.4-1.5C114.2,85.1,114.6,86,116.1,85.5z"/>
				<path fill="#010101" d="M139.3,132.3c0.6,0.6,0.3,1.6,1.2,1.8c0.1-0.1,0.1-0.2,0.1-0.3c-0.3-1.7-0.7-3.3-1.1-5
					c-0.1-0.1-0.1-0.1-0.1-0.2c-0.1-0.1-0.2-0.1-0.4-0.2c-0.1,0-0.3-0.1-0.4-0.1c-2.4-0.1-3,0.6-3,2.9c0.1,2.5,0.9,4.8,1.5,7.2
					c-1.4-0.1-1.1,1.3-1.8,1.9l0,0c0.7,0.6,0.3,1.3,0.3,1.9c0,0.9,0.2,1.8-0.3,2.6c0.4,0.5,0.3,1.1,0.1,1.7c0,0.2-0.1,0.5-0.1,0.7
					c0,0.1,0,0.3,0,0.4c0.3,0.9-0.7,2.2,0.7,2.7c0.1-0.1,0.2-0.1,0.3-0.1c0.1-2.9,0.3-5.8,0.4-8.7c0-0.6-0.1-1.2,0.4-1.6
					c0.3,1,0,2.1,0.9,3.6c0-3.8,0-7,0-10.3c0,0,0.1-0.1,0.1-0.1c0.1,0.1,0.1,0.3,0.2,0.4C139.1,133.6,139,132.8,139.3,132.3z"/>
				<path fill="#010101" d="M144.9,134.6c0.5-0.5,0.6-1.1,0.6-1.8c-0.6,0.1-0.6-0.5-0.8-0.8c-0.9-1.4-1.3-3-2.8-4.5
					c0.4,1.2,0.6,1.9,0.8,2.6C143.4,131.6,144.2,133.1,144.9,134.6L144.9,134.6z"/>
				<path fill="#010101" d="M140.8,128.6c0.2,2,0.9,3.9,1.7,6.2c0.4-1.6,0.4-1.6-0.5-4.3C141.6,129.8,141.7,128.9,140.8,128.6z"/>
				<path fill="#010101" d="M162.8,138.8c1.1-0.3,0.9-0.8,0.3-1.4c-3.7-3.6-7.3-7.2-11-10.7c-1.4-0.9-2.1-2.6-3.8-3.2
					c-0.7,0.8,0,1,0.4,1.5c2.5,2.8,5.6,4.9,7.9,7.9c0.2,0.2,0.3,0.4,0.5,0.7c0.7,0.1,1.2,0.5,1.3,1.2l0,0
					C160.2,135.7,161.3,137.4,162.8,138.8z"/>
				<path fill="#010101" d="M145.9,129.4c0.1-0.4-2-2.7-2.4-2.7c-0.3,0.1-0.6,0.3-0.4,0.6c0.5,0.8,1.1,1.6,1.8,2.4
					C145.1,130,145.7,130,145.9,129.4z"/>
				<path fill="#010101" d="M149,127.7c0,0.1,0.1-0.1,0.1-0.3c0.1-0.9-0.9-1.1-1.3-1.8c-0.2-0.4-0.6-0.7-1.1-0.5
					c-0.1,0.1-0.3,0.3-0.3,0.4C146.4,125.9,148.3,127.7,149,127.7z"/>
				<path fill="#010101" d="M144.9,125.6c-0.2,1.2,0.3,1.8,1.7,2.4C146.2,126.8,145.8,126.1,144.9,125.6z"/>
				<path fill="#010101" d="M110.4,114.7c0.1,0.8,1.2,0.4,1.8,0.3c2.8-0.2,5.5-0.4,8.3-0.6c0.1,0,0.3,0,0.4,0c0.7-1.3-0.3-1-0.9-1
					c-2.6,0.2-5.3,0.3-7.9,0.6C111.4,114.1,110.2,113.7,110.4,114.7z"/>
				<path fill="#010101" d="M120.7,109.8c0-0.2-0.1-0.5-0.1-0.7c-1.7-0.1-3.4-0.3-5.1-0.4c-0.1,0.3-0.2,0.5-0.3,0.8
					c0.1,0.1,0.1,0.2,0,0.3h0c0.4,0,0.7,0,1.1,0c0.1,0,0.3,0,0.4,0c0.1,0,0.2,0,0.4,0c0.8-0.1,1.6,0.1,2.3,0.3c0.4,0,0.9,0,1.3-0.1
					l0,0C120.7,110,120.7,109.9,120.7,109.8z"/>
				<path fill="#010101" d="M113.4,111.8c2.2,0.5,4.5,0.4,6.7,0.3c0.2,0,0.4-0.4,0.6-0.7l0,0C118.2,111.4,115.8,111.2,113.4,111.8z"
					/>
				<path fill="#010101" d="M108,114.5c-0.5,0-1,0-1.5,0.1c0,0-0.1-0.1-0.1-0.1c0,0.1,0,0.2-0.1,0.3c0.5,1.5,1.7,0.3,2.6,0.7
					C109.1,114.7,108.7,114.5,108,114.5z"/>
				<path fill="#010101" d="M101.1,114.9c-0.2,0.3-0.4,0.6-0.3,1c1.3,0.9,2.5,0.2,3.6-0.3c0-0.1-0.1-0.2-0.1-0.3
					c-0.9-0.4-2-0.3-2.9-0.4C101.3,114.9,101.2,114.9,101.1,114.9z"/>
				<path fill="#010101" d="M173.8,120.6c-0.1,0-0.2,0-0.3-0.1c-1.4-0.1-2.8-0.4-4.1-0.7c-1-0.1-2-0.2-3-0.3c0,0.4-0.1,0.9,0.4,1
					c2.1,0.5,4.2,0.9,6.3,1.2C173.7,121.8,173.9,121.3,173.8,120.6z"/>
				<path fill="#010101" d="M142.8,98.7c0.3,0.5,0.7,0.4,1-0.1c0.5-0.9,1-1.8,1.5-2.7c0.2-0.4,0.3-0.9-0.4-0.9
					C144.3,95.1,142.5,98.2,142.8,98.7z"/>
				<path fill="#010101" d="M133.9,97.2c0.1,0,0.2,0,0.3,0.1c0.6-1.3,0.4-2.6-0.4-3.8c-0.7,0.7,0,1.4-0.1,2.1
					C133.7,96.2,133.8,96.7,133.9,97.2z"/>
				<path fill="#010101" d="M126.4,100.2c0.1-0.1,0.1-0.2,0.2-0.3c-0.2-0.4-0.3-0.8-0.5-1.1c-0.4-0.5-0.9-0.8-1.5-0.7
					c-0.3,0.8,0.4,1.2,0.7,1.8C125.7,100.2,126,100.3,126.4,100.2z"/>
				<path fill="#010101" d="M128.3,98.9c0.3,0,0.6-0.2,0.6-0.6c-0.1-0.7-0.6-0.9-1.2-1c-0.4,0.1-0.7,0.3-0.5,0.6
					C127.4,98.3,127.5,99.1,128.3,98.9z"/>
				<path fill="#010101" d="M123.8,104.5c-1.4-1.4-3.4-2.1-4.9-3.4c-1.1,0.5-0.4,1,0,1.6c1.2,0.7,2.6,0.9,3.6,1.8
					c0.3,0,0.6,0.1,0.9,0.1C123.6,104.5,123.7,104.5,123.8,104.5z"/>
				<path fill="#010101" d="M122.4,105.6c-0.8-0.4-1.8-0.5-2.4-1.4l0,0c-0.4,0-0.8,0-1.1-0.4l0,0c-0.1,0-0.2,0-0.3-0.1
					c-0.2-0.1-0.3-0.2-0.5-0.3c-0.5-0.2-0.9-0.3-1.4-0.5c-0.5-0.1-0.9-0.2-1.2-0.6c-0.1,0-0.2,0-0.3,0c-0.1,0-0.2,0.1-0.2,0.1
					c-0.3,0.7,0.3,1,0.7,1.3c2,0.9,4,1.9,6,2.8c0.3,0.2,0.7,0.4,1,0.1C122.9,106.2,122.7,105.9,122.4,105.6z"/>
				<path fill="#010101" d="M121.5,107.8c0.1-0.4-0.3-0.5-0.6-0.5c-1.6,0.1-2.8-1.2-4.3-1.5c-0.6-0.1-1.2-0.3-1.7-0.4
					c-0.2,0.7,0.3,1,0.8,1.2c1.6,0.6,3.2,1.2,4.8,1.8C120.8,108.2,121.4,108.4,121.5,107.8z"/>
			</g>
			<path fill="#BB5064" d="M111.6,176c0.4,0.1,0.7,0.3,1,0.4c0.4,0.1,0.7,0.3,1,0.5c0.7,0.4,1.3,0.8,1.8,1.4
				c1.1,1.4,1.9,2.9,2.6,4.6c0.1,0.3,0.5,0.6,0.2,0.8c-0.3,0.2-0.7,0.2-1.1,0.2c-0.9-0.2-1.4-0.8-1.7-1.6c-0.3-0.6-0.6-1.2-1.2-1.7
				c-0.7-0.6-1.6-0.8-2.3-0.3c-0.8,0.6-0.2,1.4,0.1,2c0.2,0.4,0.5,0.7,0.7,1.1c0.3,0.4,0.3,0.9-0.4,0.9c-1.5-0.1-2.9-0.4-3.9-1.6
				c-0.8-1.1-1.3-2.3-0.7-3.7c0.3-0.7,0.7-1.4,1.3-1.9c0.6-0.5,1.4-1,2.2-1C111.4,176,111.5,176,111.6,176
				C111.5,176,111.6,176,111.6,176z"/>
			<path fill="#BB5064" d="M145.6,176.8c0.1-0.2,0.2-0.4,0.4-0.5c0.4-0.3,0.9-0.3,1.4-0.3c2.2,0,4.1,0.5,5.5,2.3
				c1,1.3,1.9,2.7,2.9,4c0.2,0.3,0.4,0.5,0.1,0.8c-0.5,0.6-1,0-1.4-0.4c-0.5-0.5-1-1-1.4-1.5c-0.5-0.7-0.9-1.5-1.6-2.2
				c-0.5-0.5-1.2-1.1-1.9-0.9c-0.2,0-0.3,0.1-0.5,0.2c-0.5,0.5,0.1,1.1,0.4,1.5c0.5,0.6,0.8,1.2,1.3,1.8c0.3,0.3,0.9,0.8,0.4,1.2
				c-0.6,0.4-1.3-0.2-1.6-0.6c-0.6-0.6-1.2-1.2-1.8-1.9c-0.5-0.6-1-1.1-1.5-1.7C146,178.1,145.4,177.5,145.6,176.8z"/>
			<path fill="#BB5064" d="M126,177.8c-0.2-0.3-0.3-0.6-0.4-0.9c-0.1-0.5,0-0.9,0.4-1.1c0.6-0.3,1.4-0.3,2-0.2c2.4,0.1,4.4,1,5.7,3
				c0.7,1.1,1.8,2,2.8,3c-1.2,0.8-1.9,0.6-2.8-0.2c-0.6-0.6-1.2-1.3-1.7-2c-0.8-0.9-1.7-1.8-2.8-2.4c-0.1,0-0.2-0.1-0.3-0.1
				c-0.1,0-0.3,0.1-0.4,0.2c-0.4,0.3,0.1,1,0.2,1.3c0.2,0.5,0.5,1,0.8,1.4c0.2,0.3,0.5,0.6,0.6,1c0.1,0.3,0.2,0.6,0,0.9
				c-0.2,0.3-0.6,0.3-0.9,0.1c-0.8-0.3-1.1-1.1-1.7-1.7C127.2,179.4,126.5,178.7,126,177.8z"/>
			<path fill="#ECA920" d="M147.9,181.1c0.3,0.4,0.9,1.1,0.5,1.4c-0.6,0.4-1.3,0-1.7-0.6c-0.6-0.9-1.3-1.9-2-2.8
				c-0.4-0.6-0.9-1.1-1.5-1.4c-0.6-0.3-1.6-0.6-1.7-0.3c-0.3,0.5,0.5,1.4,0.7,1.7c0.4,0.5,0.8,0.9,1.1,1.4c0.3,0.4,0.8,0.9,0.5,1.4
				c-0.4,0.6-1.1,0.2-1.6,0c-1-0.5-1.7-1.4-2.3-2.3c-0.5-0.8-1-1.6-1.5-2.4c-0.2-0.3-0.6-0.9-0.4-1.3c0.2-0.4,1.1-0.5,1.6-0.5
				c1.5-0.2,3.2-0.1,4.5,0.8c0.8,0.5,1.3,1.3,1.8,2c0.6,0.8,1.2,1.6,1.9,2.4C147.7,180.9,147.8,181,147.9,181.1z"/>
			<path fill="#ECA920" d="M128.8,181.8c0,0.2-0.2,0.4-0.3,0.5c-0.4,0.4-0.8,0.3-1.2,0.1c-0.4-0.2-0.8-0.4-1.2-0.6
				c-0.6-0.5-1-1.1-1.4-1.7c-0.9-1.2-1.8-2.5-3.8-2.7c0,0,0.2,0.5,0.3,0.6c0.1,0.2,0.2,0.4,0.3,0.6c0.2,0.4,0.4,0.8,0.6,1.2
				c0.4,0.8,0.8,1.6,1.1,2.4c-0.2,0.1-0.4,0.2-0.6,0.2c-0.2,0-0.4,0-0.6,0c-0.4-0.1-0.7-0.4-0.9-0.7c-0.9-1.3-1.7-2.7-2.7-3.9
				c-0.3-0.4-0.7-1.1-0.1-1.4c0.4-0.2,0.8-0.2,1.2-0.3c0.5-0.1,1-0.1,1.5-0.1c0.8,0,1.6,0.1,2.4,0.4c0.7,0.3,1.2,0.8,1.7,1.3
				c0.3,0.3,0.6,0.6,0.9,0.9c0.3,0.3,0.6,0.6,0.9,0.9c0.4,0.4,0.7,0.8,1.1,1.2c0.2,0.3,0.5,0.5,0.7,0.8
				C128.7,181.6,128.7,181.7,128.8,181.8C128.7,181.8,128.8,181.8,128.8,181.8z"/>
		</g>
		<path fill="#010101" d="M145.8,131.7c0.3,0.5,0.7,1.4,0.7,1.4s0.7-0.1,0.6-0.7c-0.1-0.6-0.7-1.2-0.7-1.2L145.8,131.7z"/>
		<path fill="#010101" d="M153,132.5c0,0-0.6,0.1-0.3,0.6c0.3,0.5,1.1,1.1,1.1,1.1l0.4,0.3c0,0,0.3-0.9,0-1S153,132.5,153,132.5z"/>
		<path fill="#010101" d="M156.1,137.6c0.2-0.3-0.1-0.3,0.4-0.3c0.4,0,0.9,1.1,0.9,1.1l2.2,1.8c0,0,1.1,0.4,0.8,0.7
			c-0.3,0.3-0.5,0.4-1,0.3c-0.5-0.1-1.7-1.4-2-1.8c-0.3-0.4-1.3-1.4-1.3-1.4V137.6z"/>
		<path fill="#010101" d="M155.2,141.8c0.3,0,0.6,0,0.6,0s0.9,1.3,1,1.5c0.1,0.2-0.2,0.5-0.4,0.5c-0.2,0-0.6-0.9-0.8-1
			S155.2,141.8,155.2,141.8z"/>
		<path fill="#010101" d="M153.2,143.8c0.5,0.2,0.6,0.8,0.6,0.8s0.6,0.5,0.5,0.7c-0.1,0.2,0,0.5-0.2,0.5c-0.2,0-0.6-0.5-0.6-0.5
			s-0.3-0.6-0.3-0.8C153.2,144.4,153.2,143.8,153.2,143.8z"/>
		<path fill="#010101" d="M147.8,141.2c0.2-0.1-0.3-0.7,0.2-0.1c0.4,0.6,0.4,0.7,0.5,0.9c0.1,0.2,0,0.8,0,0.8s-0.3,0.3-0.3,0
			c0-0.3-0.3-0.8-0.4-1S147.8,141.2,147.8,141.2z"/>
		<path fill="#010101" d="M145.8,146.9c0.3,0.1,0.8,0.4,0.7,0.5c-0.1,0.1,0.2,0.7,0.2,0.7s0,0.3-0.2,0.3s-0.6,0.3-0.6,0
			c0-0.3-0.4-0.7-0.3-0.9C145.6,147.3,145.8,146.9,145.8,146.9z"/>
		<path fill="#010101" d="M143.6,147.5c0.2,0.4,0.4,0.6,0.4,0.9c0,0.3,0.1,0.6,0,0.8c-0.1,0.1,0,0.4-0.2,0.4c-0.2,0-0.7,0.2-0.7-0.2
			c0.1-0.4-0.2-1,0-1.2C143.3,148,143.6,147.5,143.6,147.5z"/>
		<path fill="#010101" d="M140.4,148c0.2,0.1,0.2,0.6,0.2,0.6s0,1,0,1.1s-0.2,0.7-0.2,0.7s-0.3,0.1-0.3-0.5c0-0.5,0-1.3,0-1.3
			C140,148.5,140.4,148,140.4,148z"/>
		<path fill="#010101" d="M137.9,150.1c0.1-0.4-0.1-1.6,0-1.8c0.1-0.2-0.1-1.1,0-1.4s-0.2-1.3,0-1.5c0.2-0.1,0-0.8,0-0.8
			s0.1,0-0.2,0.3c-0.3,0.3-0.5,0.9-0.5,1.3c0,0.4,0,1.8,0,2c0,0.2,0,1.2,0,1.5s0,1.1,0,1.1L137.9,150.1z"/>
		<path fill="#010101" d="M132.7,146.2c0.1,0.2-0.1,0.4,0,0.6s0,0.7,0,1.1s0,1.2,0,1.2s-0.5,0.4-0.7,0.5s-0.4-0.1-0.3-0.5
			s0.5-2,0.5-2L132.7,146.2z"/>
		<path fill="#010101" d="M128.3,149.2c0.4-0.1,0.7-0.3,0.8-0.6c0.1-0.3,0.5-1.4,0.6-1.7s0-1,0-1c-0.5,0.5-0.9,0.4-1,1
			s-0.4,1.7-0.4,1.7V149.2z"/>
		<path fill="#010101" d="M130.1,144.6c0.2-0.3,0.3-0.8,0.3-1c0-0.1,0.1-0.5-0.1-0.2c-0.3,0.2-0.5,0.6-0.5,0.6v1L130.1,144.6z"/>
		<path fill="#010101" d="M126.1,147.5c0.2-0.7,0-1.5,0.2-1.6s0.6-0.4,0.6-0.4l-0.4,1c0,0,0,1,0,1.2s-0.4,0.4-0.4,0.4V147.5z"/>
		<path fill="#010101" d="M126.9,144.4c0.1-0.5,0.5-1,0.6-1.1c0.1-0.2,1-0.3,0.7,0c-0.2,0.3-0.3,0.6-0.4,0.8c-0.1,0.2,0,0.9-0.3,0.8
			S126.9,144.4,126.9,144.4z"/>
		<path fill="#010101" d="M131.7,136.4c0.1,0.5,0.1,1.1,0,1.3c-0.1,0.1,0.6,0.4,0.6,0c0-0.4,0.1-0.7,0-0.9c-0.1-0.2-0.3-0.3-0.3-0.3
			"/>
		<path fill="#010101" d="M161.7,132.2c0.3,0.1,1.6,0.9,1.6,0.9s1.6,0.8,1.7,1c0.1,0.2,1.2,1.1,1.2,1.1s-0.2-0.2-0.5,0
			c-0.3,0.2-1.7-0.6-1.8-0.7s-0.7-0.5-1.1-1C162.5,133,161.7,132.2,161.7,132.2z"/>
		<path fill="#010101" d="M171.9,117.2c0.7,0,1.9,0,1.9,0l1.8,0.3l-0.3,0.7l-2.7-0.5l-1.1,0L171.9,117.2z"/>
		<path fill="#010101" d="M151.2,110.6c0.8-0.1,1.8,0,1.8,0l1.3,0c0,0,0.7,0.3,0,0.4c-0.7,0.2-1.5,0.3-1.7,0.4c-0.2,0-0.5,0.1-0.7,0
			C151.7,111.3,151.2,110.6,151.2,110.6z"/>
		<path fill="#010101" d="M130.9,116.8c0.2,0.1,1.8,1.5,2.1,1.4c0.3-0.1,1.2,0.1,2.1,0s2.2-0.3,2.2-0.3s1.3-0.8,1.5-1.1
			c0.2-0.2,1-1.5,1-1.6s0.9-1.4,0.8-1.8c-0.1-0.3,0.3-2.3,0-2.4c-0.3-0.1-1-0.4-1-0.4s0.1,1.8,0,2c-0.1,0.2-0.2,1.7-0.6,2
			c-0.3,0.4-2.2,2.3-2.2,2.3s-1.7,0.3-2.3,0.4c-0.6,0-2,0-2.3,0C132,117.3,130.9,116.8,130.9,116.8z"/>
		<path fill="#010101" d="M134.9,115.1c0.7,0,1.8-0.2,1.8-0.2s0.8-0.9,0.9-1.4s-0.2-1.7-0.2-1.7H137c0,0,0,0.3,0,0.8
			s0.2,0.6-0.1,1.2c-0.4,0.6-1,0.7-1,0.8C135.7,114.6,134.9,115.1,134.9,115.1z"/>
		<path fill="#010101" d="M135.8,96.8c-0.4,0.5-0.5,1.3-0.5,1.3l0.5,0.6c0,0,0.3-0.3,0.3-0.9S135.8,96.8,135.8,96.8z"/>
		<path fill="#010101" d="M146.1,101.1c0.5-0.8,1.4-2.2,1.6-2.4s0.8-1.2,1.3-1.4s1.7-1.2,1.7-1.4c0.1-0.2,1.8-2.8,1.8-2.8
			s1.4-0.8,1.4-0.8c0,0.1-0.6,1.4-0.6,1.4s-2.1,3.4-2.3,3.5c-0.2,0.1-2.1,1.7-2.1,1.7L146.1,101.1z"/>
		<path fill="#010101" d="M100.4,110.6c0.4,0.1,1.4,0,1.8,0s2,0.4,1.7,0.4c-0.3,0.1-1.3,0.4-1.7,0.4c-0.4,0-1.4-0.4-1.6-0.4
			C100.5,110.9,100.4,110.6,100.4,110.6z"/>
		<path fill="#010101" d="M105.2,111c0.2,0.1,1.9,0,1.9,0s0.7,0.6,0.5,0.6s-1.5,0.3-1.7,0.2C105.6,111.7,105.2,111,105.2,111z"/>
		<path fill="#010101" d="M108.4,89.5c0.3,0.7,0.8,1.8,0.8,1.8s0.7-0.7,0.4-1.2s-1.2-1.1-1.2-1.1V89.5z"/>
		<path fill="#010101" d="M111.8,87.4c0.6,0.3,0.8,0.3,0.8,0c0-0.3-0.4-1-0.4-1s-0.8-0.5-0.8,0S111.8,87.4,111.8,87.4z"/>
		<path fill="#010101" d="M122.2,79.1c0,0.6,0,1.2,0,1.2l0.3,0.3l0.5-0.7l-0.5-1.1L122.2,79.1z"/>
		<path fill="#010101" d="M125.7,76.4c0.1,0.2-0.1,1.1-0.1,1.4c0,0.2,0.3,0.7,0.5,0.4c0.2-0.3,0.3-1.1,0.2-1.2
			C126.3,76.9,125.7,76.4,125.7,76.4z"/>
		<path fill="#010101" d="M147.4,77.6l1.2-0.7c0,0,0.6,0,0.5,0.4s-0.4,1-0.4,1l-0.7,0.7l-0.2-1.1L147.4,77.6z"/>
		<path fill="#010101" d="M152.4,78.7l-0.2,0.9v0.9c0,0-0.1-0.5,0.2-0.6c0.3-0.1,0.6-0.3,0.5-0.4c0-0.1,0-0.7,0-0.7
			s-0.1-0.9-0.4-0.7C152.2,78.1,152.4,78.7,152.4,78.7z"/>
	</g>
</g>
</svg>
